ply
format ascii 1.0
element vertex 38
property float x
property float y
property float z
property uchar red
property uchar green
property uchar blue
end_header
 0.000115763  -0.00034362 -0.000222316 0 255 0
 -0.864036 0.00205813   0.503735 0 255 0
 -0.858247 0.00440219    1.50348 0 255 0
0.00947431 0.00538068    1.99756 0 255 0
  0.871113 0.00336674    1.49351 0 255 0
  0.865802 0.00135162   0.494502 0 255 0
 0.309648 -0.032723  0.704704 255 255 255
 0.352628 0.0156267   0.94719 255 255 255
 0.324748 -0.165724   1.08555 255 255 255
0.101897  -0.2998 0.971087 255 255 255
-0.0209698    0.24374   0.723904 255 255 255
-0.197239 0.0969598  0.816814 255 255 255
   0.1524 -0.291702  0.996805 255 255 255
-0.239954 0.0188118   1.08877 255 255 255
-0.0100991  -0.331805   0.911103 255 255 255
-0.159521  0.229993  0.783693 255 255 255
-0.173652  0.289441  0.711812 255 255 255
-0.340745 -0.369145  0.858096 255 255 255
-0.0988854  -0.114092     1.1707 255 255 255
0.258445 0.339328  1.06191 255 255 255
 0.173669 0.0599249  0.871989 255 255 255
0.235893 0.164118 0.937482 255 255 255
0.388941 0.148474 0.836058 255 255 255
  0.318684 -0.0117268    1.28481 255 255 255
-0.0901537   0.318873    1.25543 255 255 255
-0.263437 -0.127989  0.620609 255 255 255
0.0508749  0.322107   1.00373 255 255 255
-0.155069  0.369618  0.967679 255 255 255
 0.257465 -0.231976   1.02119 255 255 255
-0.0562083  -0.115455   0.650887 255 255 255
  0.11707 -0.184523   1.01703 255 255 255
 0.254361 -0.329569  0.884651 255 255 255
-0.165767 -0.184856  0.705841 255 255 255
 0.316791 -0.250911      1.18 255 255 255
0.0110898  0.107225  0.950757 255 255 255
-0.396043  0.129309   1.17715 255 255 255
-0.0431873  -0.354094   0.740237 255 255 255
0.0894306 0.0290406  0.867812 255 255 255
