ply
format ascii 1.0
element vertex 34
property float x
property float y
property float z
property uchar red
property uchar green
property uchar blue
end_header
0 0 0 0 255 0
 -0.864221 0.00224996   0.503107 0 255 0
   0.30963 -0.0325162   0.704848 255 255 255
 0.352674 0.0158366  0.947449 255 255 255
 0.324953 -0.165725   1.08611 255 255 255
    0.102 -0.299911  0.971529 255 255 255
-0.0210041   0.243651   0.723717 255 255 255
 -0.19717 0.0970636  0.816724 255 255 255
 0.152535 -0.291795  0.997298 255 255 255
-0.239918 0.0188926   1.08903 255 255 255
-0.0100368  -0.331877   0.911474 255 255 255
-0.159481  0.230028  0.783507 255 255 255
-0.173608   0.28944   0.71155 255 255 255
-0.340753  -0.36926  0.858359 255 255 255
-0.0988289  -0.114014    1.17118 255 255 255
0.258336 0.339355  1.06193 255 255 255
 0.173635 0.0600969  0.872059 255 255 255
0.235839 0.164133 0.937548 255 255 255
0.388887 0.148314 0.836169 255 255 255
  0.318868 -0.0116273    1.28544 255 255 255
-0.0901906   0.319147    1.25561 255 255 255
-0.263329 -0.127938  0.620509 255 255 255
0.0507991  0.322161   1.00366 255 255 255
-0.155086  0.369674   0.96756 255 255 255
 0.257622 -0.232139   1.02169 255 255 255
-0.0562022  -0.115358   0.650882 255 255 255
 0.117161 -0.184538   1.01743 255 255 255
 0.254473 -0.329914  0.885067 255 255 255
-0.165735 -0.184828  0.705869 255 255 255
 0.317082 -0.250959   1.18077 255 255 255
0.011083 0.107331 0.950798 255 255 255
-0.396052  0.129475   1.17754 255 255 255
-0.0431902   -0.35421   0.740449 255 255 255
0.0894175 0.0291282  0.867876 255 255 255
