ply
format ascii 1.0
comment NViewDataSet export
comment It shows 3D point structure and cameras+ camera looking direction
element vertex 22
property float x
property float y
property float z
property uchar red
property uchar green
property uchar blue
end_header
-0.598498 0.0763024 -0.368035 255 255 255
  0.370489   0.102011 -0.0241523 255 255 255
-0.17965 0.475155 0.387408 255 255 255
0.295926 -0.39107 0.430732 255 255 255
 0.252602  0.016242 -0.235206 255 255 255
-0.582018 -0.490316 -0.162658 255 255 255
-0.423225 -0.400922   0.58623 255 255 255
-0.0651692    -0.4571  -0.594397 255 255 255
-0.589306 -0.146544 0.0379955 255 255 255
0.0854213  0.122117  0.128599 255 255 255
0 0 5 0 255 0
4.33013       0     2.5 0 255 0
4.33013       0    -2.5 0 255 0
6.12323e-16           0          -5 0 255 0
-4.33013       -0     -2.5 0 255 0
-4.33013        0      2.5 0 255 0
  0   0 4.6 255 0 0
3.98372       0     2.3 255 0 0
3.98372       0    -2.3 255 0 0
5.63338e-16           0        -4.6 255 0 0
-3.98372        0     -2.3 255 0 0
-3.98372        0      2.3 255 0 0
