ply
format ascii 1.0
comment NViewDataSet export
comment It shows 3D point structure and cameras+ camera looking direction
element vertex 22
property float x
property float y
property float z
property uchar red
property uchar green
property uchar blue
end_header
-0.598494 0.0763065 -0.368037 255 255 255
  0.370484   0.102016 -0.0241547 255 255 255
-0.179646  0.475159  0.387411 255 255 255
 0.295921 -0.391074  0.430735 255 255 255
 0.252597 0.0162464 -0.235209 255 255 255
-0.582014 -0.490321  -0.16266 255 255 255
 -0.42322 -0.400926  0.586232 255 255 255
-0.065165 -0.457104   -0.5944 255 255 255
-0.589302 -0.146548 0.0379976 255 255 255
0.0854166  0.122121  0.128602 255 255 255
0 0 5 0 255 0
4.33013       0     2.5 0 255 0
4.33013       0    -2.5 0 255 0
6.12323e-16           0          -5 0 255 0
-4.33013       -0     -2.5 0 255 0
-4.33013        0      2.5 0 255 0
  0   0 4.6 255 0 0
3.98372       0     2.3 255 0 0
3.98372       0    -2.3 255 0 0
5.63338e-16           0        -4.6 255 0 0
-3.98372        0     -2.3 255 0 0
-3.98372        0      2.3 255 0 0
