<?xml version="1.0" standalone="yes"?>
<!-- SVG graphic -->
<svg xmlns='http://www.w3.org/2000/svg' xmlns:xlink='http://www.w3.org/1999/xlink'
width="100px" height="100px" preserveAspectRatio="xMinYMin meet" viewBox="0 0 100 100" version="1.1">
<circle cx="-0.122294" cy="37.729" r="1" fill="red"/>
<circle cx="-0.0197033" cy="12.6698" r="1" fill="red"/>
<circle cx="0" cy="50.1122" r="1" fill="red"/>
<circle cx="0" cy="50.1596" r="1" fill="red"/>
<circle cx="1" cy="49.9851" r="1" fill="red"/>
<circle cx="1" cy="50.8419" r="1" fill="red"/>
<circle cx="1.91809" cy="79.0393" r="1" fill="red"/>
<circle cx="2" cy="50.5198" r="1" fill="red"/>
<circle cx="2" cy="50.7352" r="1" fill="red"/>
<circle cx="2.84286" cy="25.8136" r="1" fill="red"/>
<circle cx="3" cy="51.1035" r="1" fill="red"/>
<circle cx="3" cy="51.129" r="1" fill="red"/>
<circle cx="3.07293" cy="61.7802" r="1" fill="red"/>
<circle cx="4" cy="50.1787" r="1" fill="red"/>
<circle cx="4" cy="50.8429" r="1" fill="red"/>
<circle cx="4.8662" cy="55.8148" r="1" fill="red"/>
<circle cx="5" cy="51.2295" r="1" fill="red"/>
<circle cx="5" cy="51.5705" r="1" fill="red"/>
<circle cx="5.81333" cy="56.132" r="1" fill="red"/>
<circle cx="6" cy="50.6623" r="1" fill="red"/>
<circle cx="6.9305" cy="2.29332" r="1" fill="red"/>
<circle cx="7" cy="51.4988" r="1" fill="red"/>
<circle cx="7" cy="52.4748" r="1" fill="red"/>
<circle cx="7" cy="52.5536" r="1" fill="red"/>
<circle cx="7.30946" cy="63.6159" r="1" fill="red"/>
<circle cx="8" cy="51.483" r="1" fill="red"/>
<circle cx="8" cy="52.1504" r="1" fill="red"/>
<circle cx="8" cy="52.5501" r="1" fill="red"/>
<circle cx="9" cy="53.081" r="1" fill="red"/>
<circle cx="9.86691" cy="26.3077" r="1" fill="red"/>
<circle cx="10" cy="52.1014" r="1" fill="red"/>
<circle cx="10.6193" cy="39.9628" r="1" fill="red"/>
<circle cx="10.9994" cy="88.2712" r="1" fill="red"/>
<circle cx="11" cy="52.7307" r="1" fill="red"/>
<circle cx="11" cy="53.6746" r="1" fill="red"/>
<circle cx="11.1664" cy="89.9913" r="1" fill="red"/>
<circle cx="12" cy="52.2183" r="1" fill="red"/>
<circle cx="12" cy="53.4883" r="1" fill="red"/>
<circle cx="12.688" cy="80.0014" r="1" fill="red"/>
<circle cx="13" cy="53.1581" r="1" fill="red"/>
<circle cx="14" cy="53.409" r="1" fill="red"/>
<circle cx="14" cy="54.1374" r="1" fill="red"/>
<circle cx="14" cy="54.5278" r="1" fill="red"/>
<circle cx="15" cy="54.348" r="1" fill="red"/>
<circle cx="15" cy="54.397" r="1" fill="red"/>
<circle cx="15" cy="54.4359" r="1" fill="red"/>
<circle cx="16" cy="54.7679" r="1" fill="red"/>
<circle cx="17" cy="54.5701" r="1" fill="red"/>
<circle cx="17" cy="55.3746" r="1" fill="red"/>
<circle cx="17.1217" cy="89.9832" r="1" fill="red"/>
<circle cx="18" cy="54.9876" r="1" fill="red"/>
<circle cx="18" cy="55.3274" r="1" fill="red"/>
<circle cx="18" cy="55.7861" r="1" fill="red"/>
<circle cx="18" cy="56.2307" r="1" fill="red"/>
<circle cx="18.0328" cy="24.8893" r="1" fill="red"/>
<circle cx="18.8188" cy="49.9647" r="1" fill="red"/>
<circle cx="18.8605" cy="82.1583" r="1" fill="red"/>
<circle cx="19" cy="56.106" r="1" fill="red"/>
<circle cx="21" cy="55.7116" r="1" fill="red"/>
<circle cx="21" cy="56.4537" r="1" fill="red"/>
<circle cx="21" cy="56.7837" r="1" fill="red"/>
<circle cx="21.7064" cy="58.9189" r="1" fill="red"/>
<circle cx="22" cy="56.5321" r="1" fill="red"/>
<circle cx="22" cy="56.703" r="1" fill="red"/>
<circle cx="22.2559" cy="63.0622" r="1" fill="red"/>
<circle cx="23" cy="56.9041" r="1" fill="red"/>
<circle cx="23" cy="57.2105" r="1" fill="red"/>
<circle cx="25" cy="57.4755" r="1" fill="red"/>
<circle cx="25" cy="57.7342" r="1" fill="red"/>
<circle cx="26" cy="57.4296" r="1" fill="red"/>
<circle cx="26" cy="58.0578" r="1" fill="red"/>
<circle cx="28" cy="58.1612" r="1" fill="red"/>
<circle cx="28" cy="58.8057" r="1" fill="red"/>
<circle cx="29" cy="57.8048" r="1" fill="red"/>
<circle cx="29" cy="58.9575" r="1" fill="red"/>
<circle cx="29.1791" cy="54.0812" r="1" fill="red"/>
<circle cx="31" cy="58.947" r="1" fill="red"/>
<circle cx="31" cy="59.2636" r="1" fill="red"/>
<circle cx="31.0493" cy="69.8071" r="1" fill="red"/>
<circle cx="31.9756" cy="92.5837" r="1" fill="red"/>
<circle cx="32" cy="58.2635" r="1" fill="red"/>
<circle cx="32.7627" cy="39.8982" r="1" fill="red"/>
<circle cx="32.7805" cy="50.2339" r="1" fill="red"/>
<circle cx="32.879" cy="82.8874" r="1" fill="red"/>
<circle cx="33" cy="59.5805" r="1" fill="red"/>
<circle cx="33" cy="60.1139" r="1" fill="red"/>
<circle cx="33" cy="60.6245" r="1" fill="red"/>
<circle cx="33.2422" cy="92.9464" r="1" fill="red"/>
<circle cx="33.9828" cy="43.0588" r="1" fill="red"/>
<circle cx="34" cy="59.6429" r="1" fill="red"/>
<circle cx="34" cy="60.8157" r="1" fill="red"/>
<circle cx="34.969" cy="98.197" r="1" fill="red"/>
<circle cx="35" cy="59.862" r="1" fill="red"/>
<circle cx="35" cy="61.1803" r="1" fill="red"/>
<circle cx="36" cy="60.296" r="1" fill="red"/>
<circle cx="36" cy="60.809" r="1" fill="red"/>
<circle cx="36.1103" cy="70.8943" r="1" fill="red"/>
<circle cx="36.1345" cy="69.954" r="1" fill="red"/>
<circle cx="37" cy="61.2557" r="1" fill="red"/>
<circle cx="38" cy="61.1251" r="1" fill="red"/>
<circle cx="38.1717" cy="22.007" r="1" fill="red"/>
<circle cx="38.2021" cy="45.954" r="1" fill="red"/>
<circle cx="39.0344" cy="83.0051" r="1" fill="red"/>
<circle cx="40" cy="61.5102" r="1" fill="red"/>
<circle cx="40" cy="61.5258" r="1" fill="red"/>
<circle cx="40" cy="61.8777" r="1" fill="red"/>
<circle cx="40" cy="62.1396" r="1" fill="red"/>
<circle cx="40.8845" cy="75.8432" r="1" fill="red"/>
<circle cx="41" cy="62.5058" r="1" fill="red"/>
<circle cx="41.733" cy="60.9577" r="1" fill="red"/>
<circle cx="42" cy="62.3945" r="1" fill="red"/>
<circle cx="42" cy="62.5946" r="1" fill="red"/>
<circle cx="42" cy="62.6356" r="1" fill="red"/>
<circle cx="43.8548" cy="95.2205" r="1" fill="red"/>
<circle cx="44" cy="62.8383" r="1" fill="red"/>
<circle cx="44" cy="63.2011" r="1" fill="red"/>
<circle cx="44" cy="63.4996" r="1" fill="red"/>
<circle cx="44.0414" cy="44.1894" r="1" fill="red"/>
<circle cx="45" cy="63.2435" r="1" fill="red"/>
<circle cx="45" cy="63.5839" r="1" fill="red"/>
<circle cx="45" cy="63.7151" r="1" fill="red"/>
<circle cx="46" cy="63.9257" r="1" fill="red"/>
<circle cx="46" cy="64.5609" r="1" fill="red"/>
<circle cx="46.1235" cy="86.7374" r="1" fill="red"/>
<circle cx="46.8179" cy="63.333" r="1" fill="red"/>
<circle cx="47" cy="63.5507" r="1" fill="red"/>
<circle cx="47" cy="63.9697" r="1" fill="red"/>
<circle cx="47.1148" cy="57.9567" r="1" fill="red"/>
<circle cx="47.8412" cy="93.0431" r="1" fill="red"/>
<circle cx="48" cy="64.1141" r="1" fill="red"/>
<circle cx="48" cy="64.4642" r="1" fill="red"/>
<circle cx="48" cy="65.2122" r="1" fill="red"/>
<circle cx="48" cy="65.6451" r="1" fill="red"/>
<circle cx="48.0577" cy="15.2306" r="1" fill="red"/>
<circle cx="49" cy="63.8629" r="1" fill="red"/>
<circle cx="49" cy="64.8596" r="1" fill="red"/>
<circle cx="50" cy="65.3018" r="1" fill="red"/>
<circle cx="51.6067" cy="88.7366" r="1" fill="red"/>
<circle cx="52" cy="64.6142" r="1" fill="red"/>
<circle cx="52" cy="65.0587" r="1" fill="red"/>
<circle cx="52" cy="65.587" r="1" fill="red"/>
<circle cx="52" cy="65.7185" r="1" fill="red"/>
<circle cx="52.3231" cy="60.0005" r="1" fill="red"/>
<circle cx="53" cy="65.6346" r="1" fill="red"/>
<circle cx="53" cy="65.7552" r="1" fill="red"/>
<circle cx="53" cy="66.4896" r="1" fill="red"/>
<circle cx="54.7374" cy="75.8748" r="1" fill="red"/>
<circle cx="55" cy="66.4553" r="1" fill="red"/>
<circle cx="55" cy="66.7054" r="1" fill="red"/>
<circle cx="55" cy="66.8527" r="1" fill="red"/>
<circle cx="56" cy="66.5514" r="1" fill="red"/>
<circle cx="58" cy="66.3386" r="1" fill="red"/>
<circle cx="58" cy="66.7037" r="1" fill="red"/>
<circle cx="58" cy="67.2756" r="1" fill="red"/>
<circle cx="58" cy="68.2531" r="1" fill="red"/>
<circle cx="59" cy="67.2646" r="1" fill="red"/>
<circle cx="60.948" cy="2.80994" r="1" fill="red"/>
<circle cx="62" cy="68.6784" r="1" fill="red"/>
<circle cx="62" cy="68.9942" r="1" fill="red"/>
<circle cx="62" cy="69.2443" r="1" fill="red"/>
<circle cx="62.1066" cy="82.9967" r="1" fill="red"/>
<circle cx="62.6082" cy="65.2662" r="1" fill="red"/>
<circle cx="63" cy="69.0501" r="1" fill="red"/>
<circle cx="63" cy="69.6565" r="1" fill="red"/>
<circle cx="63" cy="69.8808" r="1" fill="red"/>
<circle cx="64" cy="68.9002" r="1" fill="red"/>
<circle cx="64" cy="68.9034" r="1" fill="red"/>
<circle cx="64" cy="69.4138" r="1" fill="red"/>
<circle cx="64.4997" cy="55.1811" r="1" fill="red"/>
<circle cx="64.8102" cy="49.3616" r="1" fill="red"/>
<circle cx="65" cy="69.0453" r="1" fill="red"/>
<circle cx="65" cy="69.1679" r="1" fill="red"/>
<circle cx="65" cy="70.2804" r="1" fill="red"/>
<circle cx="65" cy="70.5515" r="1" fill="red"/>
<circle cx="65" cy="70.6131" r="1" fill="red"/>
<circle cx="67" cy="69.1888" r="1" fill="red"/>
<circle cx="67" cy="69.846" r="1" fill="red"/>
<circle cx="67" cy="70.6865" r="1" fill="red"/>
<circle cx="67.1452" cy="25.0847" r="1" fill="red"/>
<circle cx="68" cy="69.8801" r="1" fill="red"/>
<circle cx="68" cy="70.868" r="1" fill="red"/>
<circle cx="69" cy="70.8538" r="1" fill="red"/>
<circle cx="70" cy="70.4453" r="1" fill="red"/>
<circle cx="70" cy="70.6584" r="1" fill="red"/>
<circle cx="70.0454" cy="19.7858" r="1" fill="red"/>
<circle cx="71" cy="70.7825" r="1" fill="red"/>
<circle cx="71" cy="71.2676" r="1" fill="red"/>
<circle cx="72" cy="71.4839" r="1" fill="red"/>
<circle cx="72" cy="72.0665" r="1" fill="red"/>
<circle cx="73" cy="71.6821" r="1" fill="red"/>
<circle cx="73" cy="72.7035" r="1" fill="red"/>
<circle cx="73.9119" cy="90.0545" r="1" fill="red"/>
<circle cx="73.9623" cy="84.2617" r="1" fill="red"/>
<circle cx="74" cy="72.515" r="1" fill="red"/>
<circle cx="74.1563" cy="29.8898" r="1" fill="red"/>
<circle cx="74.9519" cy="18.8654" r="1" fill="red"/>
<circle cx="75" cy="73.0132" r="1" fill="red"/>
<circle cx="76" cy="72.3628" r="1" fill="red"/>
<circle cx="76" cy="72.5108" r="1" fill="red"/>
<circle cx="76" cy="72.6541" r="1" fill="red"/>
<circle cx="76" cy="73.4518" r="1" fill="red"/>
<circle cx="76.567" cy="18.8047" r="1" fill="red"/>
<circle cx="76.8919" cy="80.1684" r="1" fill="red"/>
<circle cx="78" cy="72.3491" r="1" fill="red"/>
<circle cx="78" cy="72.6454" r="1" fill="red"/>
<circle cx="78" cy="73.0036" r="1" fill="red"/>
<circle cx="78" cy="73.2958" r="1" fill="red"/>
<circle cx="78" cy="73.467" r="1" fill="red"/>
<circle cx="78" cy="73.4715" r="1" fill="red"/>
<circle cx="78.1865" cy="87.7652" r="1" fill="red"/>
<circle cx="78.2755" cy="99.124" r="1" fill="red"/>
<circle cx="78.3435" cy="53.9084" r="1" fill="red"/>
<circle cx="78.8646" cy="52.2135" r="1" fill="red"/>
<circle cx="79" cy="73.6229" r="1" fill="red"/>
<circle cx="79" cy="73.9339" r="1" fill="red"/>
<circle cx="79.0994" cy="75.8891" r="1" fill="red"/>
<circle cx="80" cy="73.1626" r="1" fill="red"/>
<circle cx="80" cy="73.4654" r="1" fill="red"/>
<circle cx="80" cy="73.6921" r="1" fill="red"/>
<circle cx="80" cy="73.7911" r="1" fill="red"/>
<circle cx="80" cy="73.9902" r="1" fill="red"/>
<circle cx="80" cy="74.0972" r="1" fill="red"/>
<circle cx="80" cy="74.1376" r="1" fill="red"/>
<circle cx="80.8678" cy="19.2085" r="1" fill="red"/>
<circle cx="80.9801" cy="63.1778" r="1" fill="red"/>
<circle cx="81" cy="73.9234" r="1" fill="red"/>
<circle cx="81" cy="74.5206" r="1" fill="red"/>
<circle cx="81.0689" cy="75.3275" r="1" fill="red"/>
<circle cx="82" cy="74.1784" r="1" fill="red"/>
<circle cx="82" cy="74.659" r="1" fill="red"/>
<circle cx="82" cy="75.4937" r="1" fill="red"/>
<circle cx="82.949" cy="65.9356" r="1" fill="red"/>
<circle cx="83.2827" cy="79.1227" r="1" fill="red"/>
<circle cx="84" cy="75.0815" r="1" fill="red"/>
<circle cx="84" cy="75.172" r="1" fill="red"/>
<circle cx="84" cy="75.2104" r="1" fill="red"/>
<circle cx="84" cy="76.0216" r="1" fill="red"/>
<circle cx="84.9553" cy="60.7062" r="1" fill="red"/>
<circle cx="85" cy="75.3771" r="1" fill="red"/>
<circle cx="85" cy="75.5365" r="1" fill="red"/>
<circle cx="86" cy="75.7159" r="1" fill="red"/>
<circle cx="86" cy="76.2923" r="1" fill="red"/>
<circle cx="86" cy="76.4383" r="1" fill="red"/>
<circle cx="86.1221" cy="41.3291" r="1" fill="red"/>
<circle cx="86.2213" cy="44.8092" r="1" fill="red"/>
<circle cx="87" cy="75.3501" r="1" fill="red"/>
<circle cx="87" cy="75.8764" r="1" fill="red"/>
<circle cx="87.0659" cy="89.1261" r="1" fill="red"/>
<circle cx="88" cy="76.226" r="1" fill="red"/>
<circle cx="88.2106" cy="22.0603" r="1" fill="red"/>
<circle cx="89" cy="77.2827" r="1" fill="red"/>
<circle cx="89.2277" cy="60.3259" r="1" fill="red"/>
<circle cx="89.8313" cy="10.7649" r="1" fill="red"/>
<circle cx="89.8834" cy="80.742" r="1" fill="red"/>
<circle cx="90" cy="76.8252" r="1" fill="red"/>
<circle cx="91" cy="76.5109" r="1" fill="red"/>
<circle cx="91" cy="77.8762" r="1" fill="red"/>
<circle cx="92.962" cy="66.9084" r="1" fill="red"/>
<circle cx="93" cy="77.3998" r="1" fill="red"/>
<circle cx="93" cy="77.65" r="1" fill="red"/>
<circle cx="93" cy="77.755" r="1" fill="red"/>
<circle cx="93" cy="77.9391" r="1" fill="red"/>
<circle cx="94" cy="79.1326" r="1" fill="red"/>
<circle cx="94.6164" cy="22.049" r="1" fill="red"/>
<circle cx="94.6314" cy="56.1496" r="1" fill="red"/>
<circle cx="95" cy="78.8848" r="1" fill="red"/>
<circle cx="95" cy="78.9753" r="1" fill="red"/>
<circle cx="96" cy="77.8446" r="1" fill="red"/>
<circle cx="96" cy="79.0959" r="1" fill="red"/>
<circle cx="96" cy="79.5465" r="1" fill="red"/>
<circle cx="96.7059" cy="6.88087" r="1" fill="red"/>
<circle cx="97" cy="78.513" r="1" fill="red"/>
<circle cx="97" cy="78.5965" r="1" fill="red"/>
<circle cx="97" cy="78.6322" r="1" fill="red"/>
<circle cx="97" cy="78.8404" r="1" fill="red"/>
<circle cx="97" cy="79.5412" r="1" fill="red"/>
<circle cx="97" cy="79.8174" r="1" fill="red"/>
<circle cx="97.5037" cy="8.92853" r="1" fill="red"/>
<circle cx="97.8608" cy="69.1282" r="1" fill="red"/>
<circle cx="97.9018" cy="26.6976" r="1" fill="red"/>
<circle cx="98" cy="80.0321" r="1" fill="red"/>
<circle cx="99" cy="79.7665" r="1" fill="red"/>
</svg>