<?xml version="1.0" standalone="yes"?>
<!-- SVG graphic -->
<svg xmlns='http://www.w3.org/2000/svg' xmlns:xlink='http://www.w3.org/1999/xlink'
width="100px" height="100px" preserveAspectRatio="xMinYMin meet" viewBox="0 0 100 100" version="1.1">
<circle cx="0" cy="50" r="1" fill="red"/>
<circle cx="0.063663" cy="57.9071" r="1" fill="red"/>
<circle cx="1" cy="50.3" r="1" fill="red"/>
<circle cx="1.24613" cy="54.8735" r="1" fill="red"/>
<circle cx="1.79784" cy="18.0719" r="1" fill="red"/>
<circle cx="2" cy="50.6" r="1" fill="red"/>
<circle cx="3" cy="50.9" r="1" fill="red"/>
<circle cx="4.00215" cy="22.3262" r="1" fill="red"/>
<circle cx="5" cy="51.5" r="1" fill="red"/>
<circle cx="5.13911" cy="21.1151" r="1" fill="red"/>
<circle cx="7" cy="52.1" r="1" fill="red"/>
<circle cx="8" cy="52.4" r="1" fill="red"/>
<circle cx="8.94119" cy="43.1668" r="1" fill="red"/>
<circle cx="9" cy="52.7" r="1" fill="red"/>
<circle cx="9.10264" cy="13.7787" r="1" fill="red"/>
<circle cx="10" cy="53" r="1" fill="red"/>
<circle cx="11" cy="53.3" r="1" fill="red"/>
<circle cx="11.4374" cy="24.6547" r="1" fill="red"/>
<circle cx="11.9959" cy="91.0396" r="1" fill="red"/>
<circle cx="12" cy="53.6" r="1" fill="red"/>
<circle cx="12.8834" cy="18.7469" r="1" fill="red"/>
<circle cx="13" cy="53.9" r="1" fill="red"/>
<circle cx="13.0808" cy="74.6444" r="1" fill="red"/>
<circle cx="13.2381" cy="85.0939" r="1" fill="red"/>
<circle cx="14.9345" cy="16.7317" r="1" fill="red"/>
<circle cx="15" cy="54.5" r="1" fill="red"/>
<circle cx="15.2018" cy="84.2255" r="1" fill="red"/>
<circle cx="16" cy="54.8" r="1" fill="red"/>
<circle cx="17" cy="55.1" r="1" fill="red"/>
<circle cx="18" cy="55.4" r="1" fill="red"/>
<circle cx="18.8191" cy="7.94393" r="1" fill="red"/>
<circle cx="19" cy="55.7" r="1" fill="red"/>
<circle cx="19.8993" cy="74.0182" r="1" fill="red"/>
<circle cx="21" cy="56.3" r="1" fill="red"/>
<circle cx="22" cy="56.6" r="1" fill="red"/>
<circle cx="23" cy="56.9" r="1" fill="red"/>
<circle cx="23.1452" cy="38.1455" r="1" fill="red"/>
<circle cx="24" cy="57.2" r="1" fill="red"/>
<circle cx="25.1524" cy="48.8854" r="1" fill="red"/>
<circle cx="25.2751" cy="68.0588" r="1" fill="red"/>
<circle cx="25.7647" cy="18.0294" r="1" fill="red"/>
<circle cx="25.809" cy="34.9291" r="1" fill="red"/>
<circle cx="25.8652" cy="16.1706" r="1" fill="red"/>
<circle cx="26" cy="57.8" r="1" fill="red"/>
<circle cx="27" cy="58.1" r="1" fill="red"/>
<circle cx="27.1745" cy="22.9907" r="1" fill="red"/>
<circle cx="27.7051" cy="67.1946" r="1" fill="red"/>
<circle cx="27.9373" cy="9.18753" r="1" fill="red"/>
<circle cx="28" cy="58.4" r="1" fill="red"/>
<circle cx="28.9622" cy="53.2951" r="1" fill="red"/>
<circle cx="29" cy="58.7" r="1" fill="red"/>
<circle cx="29.4193" cy="73.1843" r="1" fill="red"/>
<circle cx="30" cy="59" r="1" fill="red"/>
<circle cx="31" cy="59.3" r="1" fill="red"/>
<circle cx="31.0236" cy="15.0867" r="1" fill="red"/>
<circle cx="31.8723" cy="18.1406" r="1" fill="red"/>
<circle cx="32" cy="59.6" r="1" fill="red"/>
<circle cx="33" cy="59.9" r="1" fill="red"/>
<circle cx="33.178" cy="61.9292" r="1" fill="red"/>
<circle cx="34" cy="60.2" r="1" fill="red"/>
<circle cx="34.025" cy="62.1115" r="1" fill="red"/>
<circle cx="34.0699" cy="61.2628" r="1" fill="red"/>
<circle cx="35" cy="60.5" r="1" fill="red"/>
<circle cx="36" cy="60.8" r="1" fill="red"/>
<circle cx="37" cy="61.1" r="1" fill="red"/>
<circle cx="37.8702" cy="36.1554" r="1" fill="red"/>
<circle cx="37.9067" cy="22.104" r="1" fill="red"/>
<circle cx="38" cy="61.4" r="1" fill="red"/>
<circle cx="39" cy="61.7" r="1" fill="red"/>
<circle cx="39.1573" cy="30.165" r="1" fill="red"/>
<circle cx="40" cy="62" r="1" fill="red"/>
<circle cx="40.1979" cy="81.5913" r="1" fill="red"/>
<circle cx="40.2256" cy="65.0083" r="1" fill="red"/>
<circle cx="40.9557" cy="50.9257" r="1" fill="red"/>
<circle cx="41" cy="62.3" r="1" fill="red"/>
<circle cx="41.3578" cy="36.685" r="1" fill="red"/>
<circle cx="41.9791" cy="88.0215" r="1" fill="red"/>
<circle cx="42" cy="62.6" r="1" fill="red"/>
<circle cx="42.9897" cy="49.0719" r="1" fill="red"/>
<circle cx="43" cy="62.9" r="1" fill="red"/>
<circle cx="44" cy="63.2" r="1" fill="red"/>
<circle cx="45" cy="63.5" r="1" fill="red"/>
<circle cx="47" cy="64.1" r="1" fill="red"/>
<circle cx="47.2386" cy="60.1596" r="1" fill="red"/>
<circle cx="47.9776" cy="89.194" r="1" fill="red"/>
<circle cx="48" cy="64.4" r="1" fill="red"/>
<circle cx="48.25" cy="84.2724" r="1" fill="red"/>
<circle cx="49" cy="64.7" r="1" fill="red"/>
<circle cx="50" cy="65" r="1" fill="red"/>
<circle cx="51.0949" cy="27.9778" r="1" fill="red"/>
<circle cx="51.7751" cy="16.247" r="1" fill="red"/>
<circle cx="52" cy="65.6" r="1" fill="red"/>
<circle cx="53" cy="65.9" r="1" fill="red"/>
<circle cx="53.925" cy="33.2878" r="1" fill="red"/>
<circle cx="55" cy="66.5" r="1" fill="red"/>
<circle cx="55.7513" cy="2.22595" r="1" fill="red"/>
<circle cx="56" cy="66.8" r="1" fill="red"/>
<circle cx="57" cy="67.1" r="1" fill="red"/>
<circle cx="57.9493" cy="47.1889" r="1" fill="red"/>
<circle cx="58" cy="67.4" r="1" fill="red"/>
<circle cx="58.1605" cy="17.9412" r="1" fill="red"/>
<circle cx="58.5747" cy="23.0524" r="1" fill="red"/>
<circle cx="59" cy="67.7" r="1" fill="red"/>
<circle cx="60" cy="68" r="1" fill="red"/>
<circle cx="61" cy="68.3" r="1" fill="red"/>
<circle cx="62" cy="68.6" r="1" fill="red"/>
<circle cx="62.0342" cy="44.6509" r="1" fill="red"/>
<circle cx="62.8456" cy="9.04304" r="1" fill="red"/>
<circle cx="63" cy="68.9" r="1" fill="red"/>
<circle cx="63.1276" cy="69.8969" r="1" fill="red"/>
<circle cx="63.7805" cy="21.1" r="1" fill="red"/>
<circle cx="64" cy="69.2" r="1" fill="red"/>
<circle cx="64.179" cy="60.8186" r="1" fill="red"/>
<circle cx="64.9034" cy="14.7862" r="1" fill="red"/>
<circle cx="66" cy="69.8" r="1" fill="red"/>
<circle cx="67" cy="70.1" r="1" fill="red"/>
<circle cx="67.0097" cy="33.0267" r="1" fill="red"/>
<circle cx="67.1276" cy="47.7665" r="1" fill="red"/>
<circle cx="68" cy="70.4" r="1" fill="red"/>
<circle cx="68.8939" cy="31.0914" r="1" fill="red"/>
<circle cx="69" cy="70.7" r="1" fill="red"/>
<circle cx="70" cy="71" r="1" fill="red"/>
<circle cx="70.1445" cy="17.8079" r="1" fill="red"/>
<circle cx="71" cy="71.3" r="1" fill="red"/>
<circle cx="71.917" cy="31.8538" r="1" fill="red"/>
<circle cx="71.9979" cy="47.8731" r="1" fill="red"/>
<circle cx="72" cy="71.6" r="1" fill="red"/>
<circle cx="73.1667" cy="1.948" r="1" fill="red"/>
<circle cx="73.9683" cy="83.5399" r="1" fill="red"/>
<circle cx="74" cy="72.2" r="1" fill="red"/>
<circle cx="74.8249" cy="12.9807" r="1" fill="red"/>
<circle cx="75" cy="72.5" r="1" fill="red"/>
<circle cx="77" cy="73.1" r="1" fill="red"/>
<circle cx="78" cy="73.4" r="1" fill="red"/>
<circle cx="78.0697" cy="45.8335" r="1" fill="red"/>
<circle cx="79" cy="73.7" r="1" fill="red"/>
<circle cx="81" cy="74.3" r="1" fill="red"/>
<circle cx="81.0434" cy="44.9222" r="1" fill="red"/>
<circle cx="82" cy="74.6" r="1" fill="red"/>
<circle cx="83" cy="74.9" r="1" fill="red"/>
<circle cx="83.91" cy="27.9694" r="1" fill="red"/>
<circle cx="84" cy="75.2" r="1" fill="red"/>
<circle cx="84.8669" cy="19.0102" r="1" fill="red"/>
<circle cx="85" cy="75.5" r="1" fill="red"/>
<circle cx="85.1416" cy="71.1549" r="1" fill="red"/>
<circle cx="86" cy="75.8" r="1" fill="red"/>
<circle cx="86.217" cy="39.9312" r="1" fill="red"/>
<circle cx="87" cy="76.1" r="1" fill="red"/>
<circle cx="88.0312" cy="54.0943" r="1" fill="red"/>
<circle cx="89" cy="76.7" r="1" fill="red"/>
<circle cx="89.336" cy="55.9226" r="1" fill="red"/>
<circle cx="90" cy="77" r="1" fill="red"/>
<circle cx="90.1958" cy="41.1283" r="1" fill="red"/>
<circle cx="91" cy="77.3" r="1" fill="red"/>
<circle cx="91.7227" cy="46.2862" r="1" fill="red"/>
<circle cx="92" cy="77.6" r="1" fill="red"/>
<circle cx="92.8173" cy="59.3027" r="1" fill="red"/>
<circle cx="92.8705" cy="89.9245" r="1" fill="red"/>
<circle cx="93" cy="77.9" r="1" fill="red"/>
<circle cx="93.0469" cy="74.8516" r="1" fill="red"/>
<circle cx="95" cy="78.5" r="1" fill="red"/>
<circle cx="96" cy="78.8" r="1" fill="red"/>
<circle cx="96.7953" cy="36.1831" r="1" fill="red"/>
<circle cx="97.6257" cy="50.0421" r="1" fill="red"/>
<circle cx="98" cy="79.4" r="1" fill="red"/>
<circle cx="98.0149" cy="10.1264" r="1" fill="red"/>
<circle cx="98.1797" cy="59.0859" r="1" fill="red"/>
<circle cx="99.1896" cy="78.0262" r="1" fill="red"/>
</svg>