<?xml version="1.0" standalone="yes"?>
<!-- SVG graphic -->
<svg xmlns='http://www.w3.org/2000/svg' xmlns:xlink='http://www.w3.org/1999/xlink'
width="100px" height="100px" preserveAspectRatio="xMinYMin meet" viewBox="0 0 100 100" version="1.1">
<circle cx="1" cy="49.5633" r="1" fill="red"/>
<circle cx="2" cy="49.7926" r="1" fill="red"/>
<circle cx="3" cy="51.0915" r="1" fill="red"/>
<circle cx="5" cy="50.0742" r="1" fill="red"/>
<circle cx="5" cy="50.5511" r="1" fill="red"/>
<circle cx="5" cy="52.2722" r="1" fill="red"/>
<circle cx="5" cy="52.9823" r="1" fill="red"/>
<circle cx="5.22718" cy="81.9343" r="1" fill="red"/>
<circle cx="6.0346" cy="42.4515" r="1" fill="red"/>
<circle cx="7" cy="51.6419" r="1" fill="red"/>
<circle cx="7" cy="52.397" r="1" fill="red"/>
<circle cx="7.92428" cy="32.3241" r="1" fill="red"/>
<circle cx="8" cy="52.3919" r="1" fill="red"/>
<circle cx="8" cy="53.207" r="1" fill="red"/>
<circle cx="9.09361" cy="40.8569" r="1" fill="red"/>
<circle cx="10.942" cy="89.9088" r="1" fill="red"/>
<circle cx="11" cy="51.7693" r="1" fill="red"/>
<circle cx="11" cy="52.0603" r="1" fill="red"/>
<circle cx="11" cy="52.4918" r="1" fill="red"/>
<circle cx="12" cy="53.959" r="1" fill="red"/>
<circle cx="13" cy="51.5123" r="1" fill="red"/>
<circle cx="13" cy="54.7903" r="1" fill="red"/>
<circle cx="13" cy="55.213" r="1" fill="red"/>
<circle cx="14" cy="50.8339" r="1" fill="red"/>
<circle cx="14" cy="53.2726" r="1" fill="red"/>
<circle cx="14" cy="55.2618" r="1" fill="red"/>
<circle cx="14" cy="55.729" r="1" fill="red"/>
<circle cx="15" cy="55.0112" r="1" fill="red"/>
<circle cx="15" cy="55.7449" r="1" fill="red"/>
<circle cx="15" cy="56.2186" r="1" fill="red"/>
<circle cx="15" cy="56.2784" r="1" fill="red"/>
<circle cx="15.9432" cy="28.9553" r="1" fill="red"/>
<circle cx="16" cy="53.6302" r="1" fill="red"/>
<circle cx="16" cy="53.7733" r="1" fill="red"/>
<circle cx="17" cy="56.0151" r="1" fill="red"/>
<circle cx="17.0452" cy="83.0374" r="1" fill="red"/>
<circle cx="17.0632" cy="52.8768" r="1" fill="red"/>
<circle cx="17.1238" cy="31.0846" r="1" fill="red"/>
<circle cx="18" cy="52.394" r="1" fill="red"/>
<circle cx="18" cy="53.5521" r="1" fill="red"/>
<circle cx="18" cy="55.1353" r="1" fill="red"/>
<circle cx="18" cy="56.0724" r="1" fill="red"/>
<circle cx="18.1313" cy="48.8997" r="1" fill="red"/>
<circle cx="19" cy="54.8791" r="1" fill="red"/>
<circle cx="19" cy="55.8643" r="1" fill="red"/>
<circle cx="19.0451" cy="69.7971" r="1" fill="red"/>
<circle cx="19.451" cy="62.6084" r="1" fill="red"/>
<circle cx="20" cy="54.2195" r="1" fill="red"/>
<circle cx="20" cy="55.5757" r="1" fill="red"/>
<circle cx="20" cy="56.0728" r="1" fill="red"/>
<circle cx="20" cy="59.6924" r="1" fill="red"/>
<circle cx="20.0243" cy="25.8303" r="1" fill="red"/>
<circle cx="20.8349" cy="40.3605" r="1" fill="red"/>
<circle cx="21" cy="55.7742" r="1" fill="red"/>
<circle cx="22" cy="56.1411" r="1" fill="red"/>
<circle cx="23" cy="58.6483" r="1" fill="red"/>
<circle cx="23.5481" cy="85.1729" r="1" fill="red"/>
<circle cx="24.0703" cy="95.9567" r="1" fill="red"/>
<circle cx="25" cy="56.1211" r="1" fill="red"/>
<circle cx="25" cy="58.4476" r="1" fill="red"/>
<circle cx="25.0065" cy="51.8508" r="1" fill="red"/>
<circle cx="26" cy="57.2894" r="1" fill="red"/>
<circle cx="26" cy="58.3412" r="1" fill="red"/>
<circle cx="26" cy="58.8489" r="1" fill="red"/>
<circle cx="26.1831" cy="86.1429" r="1" fill="red"/>
<circle cx="26.9697" cy="53.2453" r="1" fill="red"/>
<circle cx="27" cy="58.8274" r="1" fill="red"/>
<circle cx="27" cy="59.1091" r="1" fill="red"/>
<circle cx="28.3592" cy="46.2675" r="1" fill="red"/>
<circle cx="28.4766" cy="-0.0100529" r="1" fill="red"/>
<circle cx="28.709" cy="35.0258" r="1" fill="red"/>
<circle cx="28.9152" cy="35.96" r="1" fill="red"/>
<circle cx="29" cy="60.2245" r="1" fill="red"/>
<circle cx="30" cy="58.4765" r="1" fill="red"/>
<circle cx="30" cy="59.9139" r="1" fill="red"/>
<circle cx="31" cy="61.837" r="1" fill="red"/>
<circle cx="31" cy="63.1003" r="1" fill="red"/>
<circle cx="31.895" cy="-0.291724" r="1" fill="red"/>
<circle cx="32" cy="59.4888" r="1" fill="red"/>
<circle cx="32" cy="60.9503" r="1" fill="red"/>
<circle cx="33" cy="61.7635" r="1" fill="red"/>
<circle cx="33.1978" cy="96.3709" r="1" fill="red"/>
<circle cx="34" cy="58.5791" r="1" fill="red"/>
<circle cx="34" cy="59.3637" r="1" fill="red"/>
<circle cx="34.2041" cy="11.8005" r="1" fill="red"/>
<circle cx="34.7113" cy="20.0834" r="1" fill="red"/>
<circle cx="34.9607" cy="18.0229" r="1" fill="red"/>
<circle cx="36" cy="60.4636" r="1" fill="red"/>
<circle cx="36" cy="60.8628" r="1" fill="red"/>
<circle cx="37" cy="63.1107" r="1" fill="red"/>
<circle cx="37.6896" cy="78.3676" r="1" fill="red"/>
<circle cx="38" cy="56.7963" r="1" fill="red"/>
<circle cx="38" cy="62.0583" r="1" fill="red"/>
<circle cx="38" cy="64.6779" r="1" fill="red"/>
<circle cx="39" cy="64.5054" r="1" fill="red"/>
<circle cx="40" cy="60.1746" r="1" fill="red"/>
<circle cx="40" cy="62.1159" r="1" fill="red"/>
<circle cx="41" cy="62.0662" r="1" fill="red"/>
<circle cx="41" cy="64.8574" r="1" fill="red"/>
<circle cx="41.2441" cy="36.9832" r="1" fill="red"/>
<circle cx="42" cy="60.5344" r="1" fill="red"/>
<circle cx="42" cy="62.9894" r="1" fill="red"/>
<circle cx="42.1583" cy="52.5865" r="1" fill="red"/>
<circle cx="43" cy="61.4943" r="1" fill="red"/>
<circle cx="43.929" cy="69.1075" r="1" fill="red"/>
<circle cx="44" cy="63.53" r="1" fill="red"/>
<circle cx="44" cy="63.7289" r="1" fill="red"/>
<circle cx="44" cy="64.0373" r="1" fill="red"/>
<circle cx="44.1134" cy="30.9056" r="1" fill="red"/>
<circle cx="44.2411" cy="47.9548" r="1" fill="red"/>
<circle cx="45" cy="65.6143" r="1" fill="red"/>
<circle cx="45" cy="65.646" r="1" fill="red"/>
<circle cx="45.0614" cy="63.0821" r="1" fill="red"/>
<circle cx="46" cy="65.4944" r="1" fill="red"/>
<circle cx="46.7572" cy="51.8122" r="1" fill="red"/>
<circle cx="47" cy="62.7584" r="1" fill="red"/>
<circle cx="47" cy="65.4615" r="1" fill="red"/>
<circle cx="47.0274" cy="60.7134" r="1" fill="red"/>
<circle cx="48" cy="61.3299" r="1" fill="red"/>
<circle cx="48.4748" cy="31.0842" r="1" fill="red"/>
<circle cx="49.0253" cy="23.7641" r="1" fill="red"/>
<circle cx="50" cy="63.388" r="1" fill="red"/>
<circle cx="50" cy="65.4594" r="1" fill="red"/>
<circle cx="50.2227" cy="16.3169" r="1" fill="red"/>
<circle cx="51" cy="68.75" r="1" fill="red"/>
<circle cx="52" cy="61.9305" r="1" fill="red"/>
<circle cx="52" cy="64.3713" r="1" fill="red"/>
<circle cx="52" cy="64.4753" r="1" fill="red"/>
<circle cx="52" cy="64.8727" r="1" fill="red"/>
<circle cx="52" cy="66.5171" r="1" fill="red"/>
<circle cx="52" cy="66.81" r="1" fill="red"/>
<circle cx="52.7756" cy="4.94538" r="1" fill="red"/>
<circle cx="53" cy="66.0374" r="1" fill="red"/>
<circle cx="53" cy="68.4265" r="1" fill="red"/>
<circle cx="53.9429" cy="44.7255" r="1" fill="red"/>
<circle cx="54" cy="66.519" r="1" fill="red"/>
<circle cx="54" cy="66.7007" r="1" fill="red"/>
<circle cx="54" cy="68.3457" r="1" fill="red"/>
<circle cx="54.0826" cy="67.0581" r="1" fill="red"/>
<circle cx="54.1274" cy="76.1525" r="1" fill="red"/>
<circle cx="54.6694" cy="39.7785" r="1" fill="red"/>
<circle cx="55" cy="66.6185" r="1" fill="red"/>
<circle cx="56" cy="65.7457" r="1" fill="red"/>
<circle cx="56" cy="67.7841" r="1" fill="red"/>
<circle cx="57.1147" cy="99.0296" r="1" fill="red"/>
<circle cx="57.6767" cy="37.7078" r="1" fill="red"/>
<circle cx="57.8798" cy="55.9322" r="1" fill="red"/>
<circle cx="58" cy="65.8473" r="1" fill="red"/>
<circle cx="58" cy="67.5671" r="1" fill="red"/>
<circle cx="58.009" cy="0.462489" r="1" fill="red"/>
<circle cx="58.2804" cy="59.9617" r="1" fill="red"/>
<circle cx="59" cy="66.2827" r="1" fill="red"/>
<circle cx="59.3905" cy="69.0709" r="1" fill="red"/>
<circle cx="59.931" cy="77.9086" r="1" fill="red"/>
<circle cx="60" cy="66.6449" r="1" fill="red"/>
<circle cx="60" cy="69.6196" r="1" fill="red"/>
<circle cx="61" cy="67.0318" r="1" fill="red"/>
<circle cx="61.0058" cy="43.4067" r="1" fill="red"/>
<circle cx="61.0311" cy="80.8438" r="1" fill="red"/>
<circle cx="62" cy="68.0371" r="1" fill="red"/>
<circle cx="62" cy="69.5968" r="1" fill="red"/>
<circle cx="63" cy="67.9663" r="1" fill="red"/>
<circle cx="63" cy="68.3248" r="1" fill="red"/>
<circle cx="64" cy="66.5156" r="1" fill="red"/>
<circle cx="64" cy="69.0749" r="1" fill="red"/>
<circle cx="64" cy="69.7332" r="1" fill="red"/>
<circle cx="64" cy="70.9519" r="1" fill="red"/>
<circle cx="64.1098" cy="37.7889" r="1" fill="red"/>
<circle cx="64.1447" cy="65.0075" r="1" fill="red"/>
<circle cx="64.7887" cy="4.89724" r="1" fill="red"/>
<circle cx="64.9664" cy="30.0361" r="1" fill="red"/>
<circle cx="65" cy="67.8416" r="1" fill="red"/>
<circle cx="65" cy="68.3412" r="1" fill="red"/>
<circle cx="65" cy="71.3029" r="1" fill="red"/>
<circle cx="65" cy="71.5064" r="1" fill="red"/>
<circle cx="66" cy="70.7287" r="1" fill="red"/>
<circle cx="67" cy="69.5336" r="1" fill="red"/>
<circle cx="67" cy="70.242" r="1" fill="red"/>
<circle cx="67" cy="71.2963" r="1" fill="red"/>
<circle cx="67.8014" cy="-0.00964377" r="1" fill="red"/>
<circle cx="67.9767" cy="7.16394" r="1" fill="red"/>
<circle cx="68" cy="68.9659" r="1" fill="red"/>
<circle cx="68" cy="72.2877" r="1" fill="red"/>
<circle cx="68.9331" cy="39.9164" r="1" fill="red"/>
<circle cx="69" cy="70.1419" r="1" fill="red"/>
<circle cx="69" cy="70.2562" r="1" fill="red"/>
<circle cx="69" cy="71.9412" r="1" fill="red"/>
<circle cx="69" cy="73.5106" r="1" fill="red"/>
<circle cx="70" cy="68.8381" r="1" fill="red"/>
<circle cx="70" cy="70.2937" r="1" fill="red"/>
<circle cx="70" cy="72.6442" r="1" fill="red"/>
<circle cx="70" cy="73.3544" r="1" fill="red"/>
<circle cx="70.3525" cy="55.7329" r="1" fill="red"/>
<circle cx="70.4226" cy="81.2376" r="1" fill="red"/>
<circle cx="71" cy="68.9706" r="1" fill="red"/>
<circle cx="71" cy="70.0337" r="1" fill="red"/>
<circle cx="72" cy="72.0359" r="1" fill="red"/>
<circle cx="72" cy="75.8202" r="1" fill="red"/>
<circle cx="72.115" cy="26.1408" r="1" fill="red"/>
<circle cx="72.871" cy="34.8267" r="1" fill="red"/>
<circle cx="73" cy="74.6278" r="1" fill="red"/>
<circle cx="73.0381" cy="87.9368" r="1" fill="red"/>
<circle cx="74" cy="73.824" r="1" fill="red"/>
<circle cx="74.9683" cy="90.0485" r="1" fill="red"/>
<circle cx="75" cy="73.4648" r="1" fill="red"/>
<circle cx="75" cy="73.5543" r="1" fill="red"/>
<circle cx="76" cy="71.3834" r="1" fill="red"/>
<circle cx="76" cy="73.5325" r="1" fill="red"/>
<circle cx="76" cy="73.5931" r="1" fill="red"/>
<circle cx="76" cy="73.8288" r="1" fill="red"/>
<circle cx="77" cy="74.3834" r="1" fill="red"/>
<circle cx="78" cy="73.3927" r="1" fill="red"/>
<circle cx="78" cy="75.1144" r="1" fill="red"/>
<circle cx="78.0863" cy="70.8007" r="1" fill="red"/>
<circle cx="79" cy="73.8793" r="1" fill="red"/>
<circle cx="79" cy="74.1827" r="1" fill="red"/>
<circle cx="79.0878" cy="97.0348" r="1" fill="red"/>
<circle cx="80" cy="74.2748" r="1" fill="red"/>
<circle cx="80" cy="76.7048" r="1" fill="red"/>
<circle cx="80.4608" cy="42.1391" r="1" fill="red"/>
<circle cx="81" cy="71.9592" r="1" fill="red"/>
<circle cx="81" cy="72.8431" r="1" fill="red"/>
<circle cx="81" cy="73.2861" r="1" fill="red"/>
<circle cx="82" cy="73.9208" r="1" fill="red"/>
<circle cx="82" cy="76.1132" r="1" fill="red"/>
<circle cx="82" cy="76.3871" r="1" fill="red"/>
<circle cx="82.8824" cy="5.70654" r="1" fill="red"/>
<circle cx="82.9966" cy="24.0336" r="1" fill="red"/>
<circle cx="83" cy="75.105" r="1" fill="red"/>
<circle cx="83" cy="75.5999" r="1" fill="red"/>
<circle cx="83" cy="77.1292" r="1" fill="red"/>
<circle cx="83" cy="77.4587" r="1" fill="red"/>
<circle cx="83.2861" cy="2.34403" r="1" fill="red"/>
<circle cx="83.91" cy="92.9755" r="1" fill="red"/>
<circle cx="84" cy="73.2899" r="1" fill="red"/>
<circle cx="84" cy="76.1699" r="1" fill="red"/>
<circle cx="84" cy="76.5648" r="1" fill="red"/>
<circle cx="84.7581" cy="65.9066" r="1" fill="red"/>
<circle cx="85" cy="73.9423" r="1" fill="red"/>
<circle cx="85" cy="74.3124" r="1" fill="red"/>
<circle cx="85" cy="78.5068" r="1" fill="red"/>
<circle cx="85" cy="78.9696" r="1" fill="red"/>
<circle cx="85.9737" cy="94.8527" r="1" fill="red"/>
<circle cx="86" cy="74.5674" r="1" fill="red"/>
<circle cx="86" cy="76.0309" r="1" fill="red"/>
<circle cx="86" cy="77.1784" r="1" fill="red"/>
<circle cx="86.051" cy="69.0247" r="1" fill="red"/>
<circle cx="87.4985" cy="5.24327" r="1" fill="red"/>
<circle cx="88" cy="77.4319" r="1" fill="red"/>
<circle cx="88" cy="77.9518" r="1" fill="red"/>
<circle cx="88" cy="78.7743" r="1" fill="red"/>
<circle cx="88.1778" cy="82.7954" r="1" fill="red"/>
<circle cx="89" cy="78.429" r="1" fill="red"/>
<circle cx="90" cy="74.572" r="1" fill="red"/>
<circle cx="90" cy="77.1117" r="1" fill="red"/>
<circle cx="90.7141" cy="94.0721" r="1" fill="red"/>
<circle cx="91" cy="75.5756" r="1" fill="red"/>
<circle cx="91" cy="77.17" r="1" fill="red"/>
<circle cx="92" cy="77.1128" r="1" fill="red"/>
<circle cx="92" cy="77.7454" r="1" fill="red"/>
<circle cx="92" cy="77.7645" r="1" fill="red"/>
<circle cx="92" cy="79.6707" r="1" fill="red"/>
<circle cx="93" cy="76.6478" r="1" fill="red"/>
<circle cx="93" cy="77.19" r="1" fill="red"/>
<circle cx="94" cy="76.7918" r="1" fill="red"/>
<circle cx="94" cy="76.9082" r="1" fill="red"/>
<circle cx="94.7468" cy="23.8775" r="1" fill="red"/>
<circle cx="95" cy="77.0718" r="1" fill="red"/>
<circle cx="95" cy="78.2589" r="1" fill="red"/>
<circle cx="95" cy="79.2964" r="1" fill="red"/>
<circle cx="95" cy="79.6349" r="1" fill="red"/>
<circle cx="96" cy="77.4247" r="1" fill="red"/>
<circle cx="96" cy="80.1042" r="1" fill="red"/>
<circle cx="97" cy="76.7443" r="1" fill="red"/>
<circle cx="97" cy="78.1871" r="1" fill="red"/>
<circle cx="97" cy="81.0105" r="1" fill="red"/>
<circle cx="98.3278" cy="10.0101" r="1" fill="red"/>
<circle cx="98.83" cy="83.0335" r="1" fill="red"/>
<circle cx="99" cy="79.7934" r="1" fill="red"/>
<circle cx="99" cy="82.2776" r="1" fill="red"/>
<circle cx="99" cy="82.286" r="1" fill="red"/>
<circle cx="99.0969" cy="23.1118" r="1" fill="red"/>
</svg>