<?xml version="1.0" standalone="yes"?>
<!-- SVG graphic -->
<svg xmlns='http://www.w3.org/2000/svg' xmlns:xlink='http://www.w3.org/1999/xlink'
width="100px" height="100px" preserveAspectRatio="xMinYMin meet" viewBox="0 0 100 100" version="1.1">
<circle cx="0" cy="49.2942" r="1" fill="green"/>
<circle cx="0" cy="49.4177" r="1" fill="green"/>
<circle cx="0" cy="52.1631" r="1" fill="green"/>
<circle cx="0.745094" cy="99.3035" r="1" fill="red"/>
<circle cx="1" cy="49.0847" r="1" fill="green"/>
<circle cx="2" cy="50.0143" r="1" fill="green"/>
<circle cx="2" cy="50.5962" r="1" fill="green"/>
<circle cx="2.5028" cy="94.9031" r="1" fill="red"/>
<circle cx="3" cy="49.945" r="1" fill="green"/>
<circle cx="3" cy="52.355" r="1" fill="green"/>
<circle cx="3.89205" cy="54.0538" r="1" fill="red"/>
<circle cx="3.95194" cy="13.9861" r="1" fill="red"/>
<circle cx="4" cy="51.7197" r="1" fill="green"/>
<circle cx="4" cy="53.5241" r="1" fill="green"/>
<circle cx="4.14635" cy="24.3079" r="1" fill="red"/>
<circle cx="5" cy="51.2414" r="1" fill="green"/>
<circle cx="5" cy="52.4644" r="1" fill="green"/>
<circle cx="5" cy="52.4869" r="1" fill="green"/>
<circle cx="5.88648" cy="91.0361" r="1" fill="red"/>
<circle cx="6" cy="49.848" r="1" fill="red"/>
<circle cx="6" cy="50.5865" r="1" fill="green"/>
<circle cx="6.04484" cy="38.831" r="1" fill="red"/>
<circle cx="6.07922" cy="22.6694" r="1" fill="red"/>
<circle cx="7" cy="49.5762" r="1" fill="red"/>
<circle cx="7" cy="50.7874" r="1" fill="green"/>
<circle cx="7" cy="51.9685" r="1" fill="green"/>
<circle cx="7" cy="52.2493" r="1" fill="green"/>
<circle cx="8" cy="51.886" r="1" fill="green"/>
<circle cx="8" cy="53.2497" r="1" fill="green"/>
<circle cx="8.26596" cy="86.1414" r="1" fill="red"/>
<circle cx="9" cy="51.6371" r="1" fill="green"/>
<circle cx="9" cy="52.7842" r="1" fill="green"/>
<circle cx="10" cy="52.095" r="1" fill="green"/>
<circle cx="10" cy="52.7683" r="1" fill="green"/>
<circle cx="10.2732" cy="68.1694" r="1" fill="red"/>
<circle cx="11" cy="52.8922" r="1" fill="green"/>
<circle cx="11" cy="54.3441" r="1" fill="green"/>
<circle cx="12" cy="52.7142" r="1" fill="green"/>
<circle cx="12" cy="52.9031" r="1" fill="green"/>
<circle cx="12" cy="53.3275" r="1" fill="green"/>
<circle cx="12" cy="53.6292" r="1" fill="green"/>
<circle cx="12.01" cy="21.1852" r="1" fill="red"/>
<circle cx="12.0737" cy="49.9248" r="1" fill="red"/>
<circle cx="12.9563" cy="54.9449" r="1" fill="green"/>
<circle cx="13" cy="52.4493" r="1" fill="green"/>
<circle cx="13.7715" cy="37.051" r="1" fill="red"/>
<circle cx="13.9632" cy="5.23285" r="1" fill="red"/>
<circle cx="14" cy="54.1519" r="1" fill="green"/>
<circle cx="14" cy="54.5947" r="1" fill="green"/>
<circle cx="15" cy="54.2379" r="1" fill="green"/>
<circle cx="15" cy="54.2982" r="1" fill="green"/>
<circle cx="15" cy="54.5843" r="1" fill="green"/>
<circle cx="15" cy="54.5888" r="1" fill="green"/>
<circle cx="16.3981" cy="65.0289" r="1" fill="red"/>
<circle cx="17" cy="54.6603" r="1" fill="green"/>
<circle cx="17" cy="55.2269" r="1" fill="green"/>
<circle cx="17" cy="56.4167" r="1" fill="green"/>
<circle cx="18" cy="53.8398" r="1" fill="green"/>
<circle cx="18" cy="55.6205" r="1" fill="green"/>
<circle cx="18" cy="57.3405" r="1" fill="green"/>
<circle cx="18.9779" cy="51.0717" r="1" fill="red"/>
<circle cx="19" cy="56.1024" r="1" fill="green"/>
<circle cx="19.0806" cy="24.8087" r="1" fill="red"/>
<circle cx="20" cy="56.4486" r="1" fill="green"/>
<circle cx="20.2737" cy="62.0023" r="1" fill="red"/>
<circle cx="20.6623" cy="67.8447" r="1" fill="red"/>
<circle cx="21" cy="55.4977" r="1" fill="green"/>
<circle cx="21" cy="56.7659" r="1" fill="green"/>
<circle cx="22" cy="55.8016" r="1" fill="green"/>
<circle cx="22" cy="57.4234" r="1" fill="green"/>
<circle cx="23" cy="55.4742" r="1" fill="green"/>
<circle cx="23" cy="56.1185" r="1" fill="green"/>
<circle cx="23" cy="56.6629" r="1" fill="green"/>
<circle cx="23" cy="58.6526" r="1" fill="green"/>
<circle cx="24" cy="55.7145" r="1" fill="green"/>
<circle cx="24.1212" cy="8.92238" r="1" fill="red"/>
<circle cx="25.9785" cy="45.9252" r="1" fill="red"/>
<circle cx="26" cy="57.4479" r="1" fill="green"/>
<circle cx="27" cy="57.2866" r="1" fill="green"/>
<circle cx="27" cy="58.2155" r="1" fill="green"/>
<circle cx="27" cy="58.3288" r="1" fill="green"/>
<circle cx="27" cy="58.8419" r="1" fill="green"/>
<circle cx="27.6236" cy="15.5602" r="1" fill="red"/>
<circle cx="27.978" cy="45.0868" r="1" fill="red"/>
<circle cx="28" cy="58.0163" r="1" fill="green"/>
<circle cx="28.1046" cy="55.3299" r="1" fill="red"/>
<circle cx="29" cy="57.6837" r="1" fill="green"/>
<circle cx="29" cy="58.3204" r="1" fill="green"/>
<circle cx="29" cy="58.4241" r="1" fill="green"/>
<circle cx="29.2635" cy="51.3899" r="1" fill="red"/>
<circle cx="30" cy="57.5025" r="1" fill="green"/>
<circle cx="30" cy="58.5899" r="1" fill="green"/>
<circle cx="30" cy="58.7197" r="1" fill="green"/>
<circle cx="30" cy="59.067" r="1" fill="green"/>
<circle cx="30" cy="60.4607" r="1" fill="green"/>
<circle cx="31" cy="59.5988" r="1" fill="green"/>
<circle cx="31" cy="59.6189" r="1" fill="green"/>
<circle cx="31" cy="59.6872" r="1" fill="green"/>
<circle cx="31.9739" cy="9.87004" r="1" fill="red"/>
<circle cx="32" cy="58.9279" r="1" fill="green"/>
<circle cx="32.0092" cy="40.9749" r="1" fill="red"/>
<circle cx="32.891" cy="53.05" r="1" fill="red"/>
<circle cx="33" cy="58.4374" r="1" fill="green"/>
<circle cx="33" cy="59.6036" r="1" fill="green"/>
<circle cx="33.062" cy="64.8965" r="1" fill="red"/>
<circle cx="34" cy="60.055" r="1" fill="green"/>
<circle cx="34" cy="60.3769" r="1" fill="green"/>
<circle cx="34.7528" cy="20.4638" r="1" fill="red"/>
<circle cx="35" cy="60.2143" r="1" fill="green"/>
<circle cx="36.2941" cy="72.3033" r="1" fill="red"/>
<circle cx="37" cy="62.4728" r="1" fill="green"/>
<circle cx="37.231" cy="50.3496" r="1" fill="red"/>
<circle cx="38" cy="62.0097" r="1" fill="green"/>
<circle cx="39" cy="62.6406" r="1" fill="green"/>
<circle cx="40" cy="60.3636" r="1" fill="green"/>
<circle cx="40" cy="61.6701" r="1" fill="green"/>
<circle cx="40" cy="62.4927" r="1" fill="green"/>
<circle cx="40" cy="62.714" r="1" fill="green"/>
<circle cx="40" cy="64.0037" r="1" fill="green"/>
<circle cx="41" cy="61.6231" r="1" fill="green"/>
<circle cx="42" cy="62.4828" r="1" fill="green"/>
<circle cx="43" cy="62.5238" r="1" fill="green"/>
<circle cx="43" cy="63.0192" r="1" fill="green"/>
<circle cx="43" cy="63.0957" r="1" fill="green"/>
<circle cx="43" cy="64.4364" r="1" fill="green"/>
<circle cx="43" cy="65.0226" r="1" fill="red"/>
<circle cx="43.9121" cy="38.7891" r="1" fill="red"/>
<circle cx="44" cy="62.4311" r="1" fill="green"/>
<circle cx="44" cy="63.6623" r="1" fill="green"/>
<circle cx="44.8611" cy="87.8767" r="1" fill="red"/>
<circle cx="45" cy="62.6138" r="1" fill="green"/>
<circle cx="45.1227" cy="40.9105" r="1" fill="red"/>
<circle cx="45.1337" cy="56.3567" r="1" fill="red"/>
<circle cx="46" cy="63.0112" r="1" fill="green"/>
<circle cx="46" cy="63.5001" r="1" fill="green"/>
<circle cx="46" cy="63.5057" r="1" fill="green"/>
<circle cx="46" cy="64.6598" r="1" fill="green"/>
<circle cx="46.4249" cy="16.79" r="1" fill="red"/>
<circle cx="47" cy="64.5114" r="1" fill="green"/>
<circle cx="47.1558" cy="79.0437" r="1" fill="red"/>
<circle cx="48" cy="64.1827" r="1" fill="green"/>
<circle cx="48" cy="64.8892" r="1" fill="green"/>
<circle cx="48" cy="64.9792" r="1" fill="green"/>
<circle cx="48" cy="65.212" r="1" fill="green"/>
<circle cx="49.893" cy="18.2511" r="1" fill="red"/>
<circle cx="50" cy="65.2334" r="1" fill="green"/>
<circle cx="51" cy="64.6489" r="1" fill="green"/>
<circle cx="51" cy="66.4829" r="1" fill="green"/>
<circle cx="51" cy="67.0781" r="1" fill="green"/>
<circle cx="52" cy="64.7705" r="1" fill="green"/>
<circle cx="53" cy="64.7916" r="1" fill="green"/>
<circle cx="53" cy="65.1786" r="1" fill="green"/>
<circle cx="53" cy="66.681" r="1" fill="green"/>
<circle cx="53" cy="66.7899" r="1" fill="green"/>
<circle cx="53.1378" cy="21.7103" r="1" fill="red"/>
<circle cx="53.2048" cy="23.1166" r="1" fill="red"/>
<circle cx="54" cy="66.1897" r="1" fill="green"/>
<circle cx="54" cy="67.0897" r="1" fill="green"/>
<circle cx="55" cy="67.1061" r="1" fill="green"/>
<circle cx="55" cy="67.4664" r="1" fill="green"/>
<circle cx="55.1297" cy="26.9184" r="1" fill="red"/>
<circle cx="56" cy="66.9343" r="1" fill="green"/>
<circle cx="56" cy="67.0229" r="1" fill="green"/>
<circle cx="56" cy="67.1979" r="1" fill="green"/>
<circle cx="56" cy="68.3986" r="1" fill="green"/>
<circle cx="56" cy="68.5959" r="1" fill="green"/>
<circle cx="56.2667" cy="98.9995" r="1" fill="red"/>
<circle cx="56.414" cy="8.97135" r="1" fill="red"/>
<circle cx="57" cy="68.0093" r="1" fill="green"/>
<circle cx="57.7427" cy="88.8253" r="1" fill="red"/>
<circle cx="57.9217" cy="2.01818" r="1" fill="red"/>
<circle cx="58" cy="66.8985" r="1" fill="green"/>
<circle cx="58" cy="68.4971" r="1" fill="green"/>
<circle cx="58" cy="69.1247" r="1" fill="green"/>
<circle cx="59" cy="67.2386" r="1" fill="green"/>
<circle cx="59" cy="67.5435" r="1" fill="green"/>
<circle cx="59.3172" cy="83.5269" r="1" fill="red"/>
<circle cx="60" cy="68.6926" r="1" fill="green"/>
<circle cx="61" cy="67.1102" r="1" fill="green"/>
<circle cx="61" cy="67.2951" r="1" fill="green"/>
<circle cx="61" cy="68.3785" r="1" fill="green"/>
<circle cx="61" cy="69.7646" r="1" fill="green"/>
<circle cx="62" cy="66.4199" r="1" fill="green"/>
<circle cx="62" cy="68.1888" r="1" fill="green"/>
<circle cx="62" cy="68.3582" r="1" fill="green"/>
<circle cx="62" cy="68.4559" r="1" fill="green"/>
<circle cx="62" cy="69.4556" r="1" fill="green"/>
<circle cx="62" cy="69.7063" r="1" fill="green"/>
<circle cx="62.8494" cy="51.5363" r="1" fill="red"/>
<circle cx="64" cy="68.8302" r="1" fill="green"/>
<circle cx="64" cy="70.7224" r="1" fill="green"/>
<circle cx="64.016" cy="0.241069" r="1" fill="red"/>
<circle cx="66" cy="68.6168" r="1" fill="green"/>
<circle cx="66" cy="69.5596" r="1" fill="green"/>
<circle cx="66" cy="70.5054" r="1" fill="green"/>
<circle cx="67" cy="68.9137" r="1" fill="green"/>
<circle cx="67" cy="71.1654" r="1" fill="green"/>
<circle cx="67.9607" cy="24.1293" r="1" fill="red"/>
<circle cx="68" cy="69.6927" r="1" fill="green"/>
<circle cx="68" cy="72.1497" r="1" fill="green"/>
<circle cx="68.1385" cy="68.1501" r="1" fill="green"/>
<circle cx="69" cy="69.1565" r="1" fill="green"/>
<circle cx="69" cy="70.7868" r="1" fill="green"/>
<circle cx="69" cy="70.9109" r="1" fill="green"/>
<circle cx="69" cy="71.0783" r="1" fill="green"/>
<circle cx="69" cy="71.1784" r="1" fill="green"/>
<circle cx="69" cy="71.7399" r="1" fill="green"/>
<circle cx="70.0435" cy="76.2488" r="1" fill="red"/>
<circle cx="70.9946" cy="38.2085" r="1" fill="red"/>
<circle cx="71" cy="70.2147" r="1" fill="green"/>
<circle cx="71" cy="71.526" r="1" fill="green"/>
<circle cx="72" cy="70.3958" r="1" fill="green"/>
<circle cx="72" cy="71.4116" r="1" fill="green"/>
<circle cx="72" cy="72.7344" r="1" fill="green"/>
<circle cx="72.8858" cy="14.0201" r="1" fill="red"/>
<circle cx="73.5923" cy="93.1198" r="1" fill="red"/>
<circle cx="74" cy="71.1338" r="1" fill="green"/>
<circle cx="75" cy="71.1314" r="1" fill="green"/>
<circle cx="75" cy="72.008" r="1" fill="green"/>
<circle cx="75" cy="72.7271" r="1" fill="green"/>
<circle cx="75" cy="73.1898" r="1" fill="green"/>
<circle cx="75.3401" cy="99.0387" r="1" fill="red"/>
<circle cx="76" cy="72.1193" r="1" fill="green"/>
<circle cx="76" cy="73.0062" r="1" fill="green"/>
<circle cx="76" cy="74.3569" r="1" fill="green"/>
<circle cx="76.8591" cy="19.3615" r="1" fill="red"/>
<circle cx="76.9297" cy="97.0275" r="1" fill="red"/>
<circle cx="77" cy="73.9176" r="1" fill="green"/>
<circle cx="77.3398" cy="42.8888" r="1" fill="red"/>
<circle cx="78" cy="72.9976" r="1" fill="green"/>
<circle cx="79" cy="74.3389" r="1" fill="green"/>
<circle cx="79" cy="74.4266" r="1" fill="green"/>
<circle cx="79.9128" cy="50.9308" r="1" fill="red"/>
<circle cx="80" cy="73.7469" r="1" fill="green"/>
<circle cx="81" cy="72.8127" r="1" fill="green"/>
<circle cx="81.9211" cy="54.8474" r="1" fill="red"/>
<circle cx="81.9803" cy="47.2139" r="1" fill="red"/>
<circle cx="82" cy="75.6588" r="1" fill="green"/>
<circle cx="82.0632" cy="92.7959" r="1" fill="red"/>
<circle cx="83.8727" cy="5.66443" r="1" fill="red"/>
<circle cx="84" cy="74.6868" r="1" fill="green"/>
<circle cx="84.223" cy="17.876" r="1" fill="red"/>
<circle cx="84.4959" cy="12.3033" r="1" fill="red"/>
<circle cx="85" cy="73.7416" r="1" fill="green"/>
<circle cx="85" cy="75.5574" r="1" fill="green"/>
<circle cx="85" cy="76.4943" r="1" fill="green"/>
<circle cx="85.95" cy="4.94556" r="1" fill="red"/>
<circle cx="87.1772" cy="39.9545" r="1" fill="red"/>
<circle cx="88" cy="76.5648" r="1" fill="green"/>
<circle cx="88" cy="76.7908" r="1" fill="green"/>
<circle cx="88" cy="76.9601" r="1" fill="green"/>
<circle cx="88" cy="77.0741" r="1" fill="green"/>
<circle cx="88" cy="77.7905" r="1" fill="green"/>
<circle cx="89" cy="78.8365" r="1" fill="red"/>
<circle cx="89.3066" cy="54.0478" r="1" fill="red"/>
<circle cx="89.9149" cy="19.1245" r="1" fill="red"/>
<circle cx="90" cy="78.18" r="1" fill="green"/>
<circle cx="90.4186" cy="34.9913" r="1" fill="red"/>
<circle cx="91" cy="75.7077" r="1" fill="green"/>
<circle cx="91" cy="77.2877" r="1" fill="green"/>
<circle cx="91.7737" cy="99.1639" r="1" fill="red"/>
<circle cx="91.8992" cy="92.785" r="1" fill="red"/>
<circle cx="91.9608" cy="83.9871" r="1" fill="red"/>
<circle cx="92" cy="76.5724" r="1" fill="green"/>
<circle cx="92.2037" cy="50.3193" r="1" fill="red"/>
<circle cx="92.8958" cy="53.0921" r="1" fill="red"/>
<circle cx="93" cy="75.804" r="1" fill="green"/>
<circle cx="93" cy="77.8184" r="1" fill="green"/>
<circle cx="93" cy="78.3294" r="1" fill="green"/>
<circle cx="93" cy="78.4595" r="1" fill="green"/>
<circle cx="93.0491" cy="34.816" r="1" fill="red"/>
<circle cx="94.5388" cy="27.5772" r="1" fill="red"/>
<circle cx="95" cy="77.9116" r="1" fill="green"/>
<circle cx="96.9331" cy="43.9163" r="1" fill="red"/>
<circle cx="96.9601" cy="31.2004" r="1" fill="red"/>
<circle cx="97" cy="78.5377" r="1" fill="green"/>
<circle cx="97.6389" cy="68.1206" r="1" fill="red"/>
<circle cx="97.8751" cy="90.2028" r="1" fill="red"/>
<circle cx="98" cy="78.3238" r="1" fill="green"/>
<circle cx="98" cy="79.4829" r="1" fill="green"/>
<circle cx="98" cy="80.5727" r="1" fill="green"/>
<circle cx="98.9744" cy="39.9125" r="1" fill="red"/>
<polyline points="0,50.3769,100,79.4087" stroke="blue" stroke-width="0.5" fill="none"/>
</svg>