<?xml version="1.0" standalone="yes"?>
<!-- SVG graphic -->
<svg xmlns='http://www.w3.org/2000/svg' xmlns:xlink='http://www.w3.org/1999/xlink'
width="100px" height="100px" preserveAspectRatio="xMinYMin meet" viewBox="0 0 100 100" version="1.1">
<circle cx="0" cy="49.915" r="1" fill="red"/>
<circle cx="0" cy="50.3029" r="1" fill="red"/>
<circle cx="0" cy="50.6677" r="1" fill="red"/>
<circle cx="0" cy="51.176" r="1" fill="red"/>
<circle cx="0" cy="51.5131" r="1" fill="red"/>
<circle cx="0.0590918" cy="18.1699" r="1" fill="red"/>
<circle cx="0.0677014" cy="49.1088" r="1" fill="red"/>
<circle cx="1" cy="50.1515" r="1" fill="red"/>
<circle cx="1.15866" cy="77.684" r="1" fill="red"/>
<circle cx="2.01237" cy="21.6045" r="1" fill="red"/>
<circle cx="2.92344" cy="61.0291" r="1" fill="red"/>
<circle cx="3" cy="51.9229" r="1" fill="red"/>
<circle cx="3" cy="54.9373" r="1" fill="red"/>
<circle cx="3.04146" cy="82.9346" r="1" fill="red"/>
<circle cx="3.78003" cy="25.1493" r="1" fill="red"/>
<circle cx="4" cy="48.2803" r="1" fill="red"/>
<circle cx="4" cy="48.2916" r="1" fill="red"/>
<circle cx="4" cy="49.7191" r="1" fill="red"/>
<circle cx="4" cy="51.3577" r="1" fill="red"/>
<circle cx="5" cy="51.7944" r="1" fill="red"/>
<circle cx="5.73523" cy="48.4613" r="1" fill="red"/>
<circle cx="6" cy="48.1219" r="1" fill="red"/>
<circle cx="6" cy="48.6151" r="1" fill="red"/>
<circle cx="6" cy="53.104" r="1" fill="red"/>
<circle cx="7" cy="53.2983" r="1" fill="red"/>
<circle cx="9" cy="53.3054" r="1" fill="red"/>
<circle cx="9" cy="54.6499" r="1" fill="red"/>
<circle cx="9.00619" cy="92.2758" r="1" fill="red"/>
<circle cx="9.12997" cy="71.9008" r="1" fill="red"/>
<circle cx="9.98788" cy="83.017" r="1" fill="red"/>
<circle cx="10" cy="51.2036" r="1" fill="red"/>
<circle cx="10" cy="53.7036" r="1" fill="red"/>
<circle cx="11" cy="51.894" r="1" fill="red"/>
<circle cx="11" cy="53.543" r="1" fill="red"/>
<circle cx="12" cy="51.0486" r="1" fill="red"/>
<circle cx="13" cy="53.695" r="1" fill="red"/>
<circle cx="13" cy="57.344" r="1" fill="red"/>
<circle cx="14" cy="56.6168" r="1" fill="red"/>
<circle cx="14" cy="57.1275" r="1" fill="red"/>
<circle cx="14.2518" cy="24.8431" r="1" fill="red"/>
<circle cx="15" cy="51.6353" r="1" fill="red"/>
<circle cx="15" cy="54.3182" r="1" fill="red"/>
<circle cx="15" cy="56.4111" r="1" fill="red"/>
<circle cx="15" cy="56.5094" r="1" fill="red"/>
<circle cx="16" cy="50.9884" r="1" fill="red"/>
<circle cx="16" cy="56.4784" r="1" fill="red"/>
<circle cx="16.357" cy="69.8124" r="1" fill="red"/>
<circle cx="17" cy="53.6012" r="1" fill="red"/>
<circle cx="17.1831" cy="95.9786" r="1" fill="red"/>
<circle cx="18" cy="50.2765" r="1" fill="red"/>
<circle cx="18" cy="50.7588" r="1" fill="red"/>
<circle cx="18" cy="55.7346" r="1" fill="red"/>
<circle cx="18" cy="56.493" r="1" fill="red"/>
<circle cx="18.0053" cy="51.0565" r="1" fill="red"/>
<circle cx="19" cy="53.0666" r="1" fill="red"/>
<circle cx="19.7458" cy="9.17484" r="1" fill="red"/>
<circle cx="19.9284" cy="8.07394" r="1" fill="red"/>
<circle cx="20" cy="59.4942" r="1" fill="red"/>
<circle cx="21" cy="54.8816" r="1" fill="red"/>
<circle cx="21" cy="56.0315" r="1" fill="red"/>
<circle cx="21.2763" cy="68.1023" r="1" fill="red"/>
<circle cx="21.8434" cy="12.8783" r="1" fill="red"/>
<circle cx="21.8739" cy="87.7855" r="1" fill="red"/>
<circle cx="22" cy="57.9377" r="1" fill="red"/>
<circle cx="22" cy="58.0066" r="1" fill="red"/>
<circle cx="22.2032" cy="39.6478" r="1" fill="red"/>
<circle cx="22.8309" cy="11.8645" r="1" fill="red"/>
<circle cx="23" cy="58.0193" r="1" fill="red"/>
<circle cx="23.4192" cy="92.9504" r="1" fill="red"/>
<circle cx="23.8806" cy="51.0302" r="1" fill="red"/>
<circle cx="24" cy="58.416" r="1" fill="red"/>
<circle cx="24" cy="59.884" r="1" fill="red"/>
<circle cx="24.0458" cy="46.1406" r="1" fill="red"/>
<circle cx="25" cy="52.8594" r="1" fill="red"/>
<circle cx="25" cy="56.2623" r="1" fill="red"/>
<circle cx="25" cy="58.7571" r="1" fill="red"/>
<circle cx="25.163" cy="70.2774" r="1" fill="red"/>
<circle cx="25.1938" cy="30.1135" r="1" fill="red"/>
<circle cx="26.9671" cy="5.10916" r="1" fill="red"/>
<circle cx="27" cy="58.8282" r="1" fill="red"/>
<circle cx="27" cy="60.5852" r="1" fill="red"/>
<circle cx="29" cy="60.672" r="1" fill="red"/>
<circle cx="29" cy="61.8614" r="1" fill="red"/>
<circle cx="29" cy="62.1912" r="1" fill="red"/>
<circle cx="29.0491" cy="24.947" r="1" fill="red"/>
<circle cx="30" cy="58.4843" r="1" fill="red"/>
<circle cx="30" cy="60.6365" r="1" fill="red"/>
<circle cx="31.0558" cy="4.33104" r="1" fill="red"/>
<circle cx="32" cy="55.8719" r="1" fill="red"/>
<circle cx="32" cy="56.8582" r="1" fill="red"/>
<circle cx="33" cy="58.1286" r="1" fill="red"/>
<circle cx="33" cy="59.4532" r="1" fill="red"/>
<circle cx="33" cy="60.0849" r="1" fill="red"/>
<circle cx="33" cy="60.1858" r="1" fill="red"/>
<circle cx="33" cy="60.9556" r="1" fill="red"/>
<circle cx="33" cy="62.2743" r="1" fill="red"/>
<circle cx="34" cy="62.9359" r="1" fill="red"/>
<circle cx="34.3421" cy="53.0582" r="1" fill="red"/>
<circle cx="34.9823" cy="40.8136" r="1" fill="red"/>
<circle cx="35" cy="57.9876" r="1" fill="red"/>
<circle cx="35" cy="61.0218" r="1" fill="red"/>
<circle cx="35" cy="63.6301" r="1" fill="red"/>
<circle cx="36" cy="60.7049" r="1" fill="red"/>
<circle cx="37" cy="57.9018" r="1" fill="red"/>
<circle cx="37" cy="59.3141" r="1" fill="red"/>
<circle cx="37" cy="61.7898" r="1" fill="red"/>
<circle cx="37" cy="63.64" r="1" fill="red"/>
<circle cx="38" cy="58.9288" r="1" fill="red"/>
<circle cx="38" cy="59.0273" r="1" fill="red"/>
<circle cx="38" cy="62.8779" r="1" fill="red"/>
<circle cx="38" cy="64.201" r="1" fill="red"/>
<circle cx="38.113" cy="5.87284" r="1" fill="red"/>
<circle cx="39" cy="58.2063" r="1" fill="red"/>
<circle cx="39" cy="61.1161" r="1" fill="red"/>
<circle cx="39.0459" cy="81.779" r="1" fill="red"/>
<circle cx="39.1515" cy="30.9646" r="1" fill="red"/>
<circle cx="40" cy="63.1283" r="1" fill="red"/>
<circle cx="40.678" cy="51.079" r="1" fill="red"/>
<circle cx="42" cy="64.1874" r="1" fill="red"/>
<circle cx="42.84" cy="75.8671" r="1" fill="red"/>
<circle cx="43" cy="60.8924" r="1" fill="red"/>
<circle cx="43.0316" cy="32.9708" r="1" fill="red"/>
<circle cx="43.9617" cy="54.9922" r="1" fill="red"/>
<circle cx="44" cy="60.0795" r="1" fill="red"/>
<circle cx="44" cy="61.9686" r="1" fill="red"/>
<circle cx="44.0003" cy="61.7514" r="1" fill="red"/>
<circle cx="45" cy="59.911" r="1" fill="red"/>
<circle cx="45" cy="61.8049" r="1" fill="red"/>
<circle cx="45" cy="62.3783" r="1" fill="red"/>
<circle cx="45" cy="62.6211" r="1" fill="red"/>
<circle cx="45" cy="66.7123" r="1" fill="red"/>
<circle cx="45.0436" cy="74.9843" r="1" fill="red"/>
<circle cx="45.6083" cy="27.0367" r="1" fill="red"/>
<circle cx="46" cy="61.9845" r="1" fill="red"/>
<circle cx="46" cy="64.3312" r="1" fill="red"/>
<circle cx="47" cy="63.6826" r="1" fill="red"/>
<circle cx="47" cy="67.2792" r="1" fill="red"/>
<circle cx="48" cy="64.2961" r="1" fill="red"/>
<circle cx="48.084" cy="99.0589" r="1" fill="red"/>
<circle cx="48.0966" cy="30.1912" r="1" fill="red"/>
<circle cx="49" cy="63.7506" r="1" fill="red"/>
<circle cx="49" cy="64.2836" r="1" fill="red"/>
<circle cx="49" cy="65.0079" r="1" fill="red"/>
<circle cx="49.1272" cy="17.7455" r="1" fill="red"/>
<circle cx="49.2941" cy="98.3654" r="1" fill="red"/>
<circle cx="49.9578" cy="27.249" r="1" fill="red"/>
<circle cx="50" cy="62.7317" r="1" fill="red"/>
<circle cx="50" cy="65.3445" r="1" fill="red"/>
<circle cx="50.0581" cy="98.8409" r="1" fill="red"/>
<circle cx="50.9919" cy="21.9114" r="1" fill="red"/>
<circle cx="51" cy="64.702" r="1" fill="red"/>
<circle cx="51" cy="65.7392" r="1" fill="red"/>
<circle cx="51.3708" cy="59.0605" r="1" fill="red"/>
<circle cx="52" cy="63.848" r="1" fill="red"/>
<circle cx="52" cy="64.3981" r="1" fill="red"/>
<circle cx="52" cy="64.8151" r="1" fill="red"/>
<circle cx="52" cy="67.8008" r="1" fill="red"/>
<circle cx="53" cy="68.4417" r="1" fill="red"/>
<circle cx="53" cy="69.693" r="1" fill="red"/>
<circle cx="53.001" cy="29.2329" r="1" fill="red"/>
<circle cx="53.3577" cy="40.9531" r="1" fill="red"/>
<circle cx="54" cy="66.429" r="1" fill="red"/>
<circle cx="54" cy="67.8212" r="1" fill="red"/>
<circle cx="54" cy="68.8556" r="1" fill="red"/>
<circle cx="54.9719" cy="38.8004" r="1" fill="red"/>
<circle cx="56" cy="64.1602" r="1" fill="red"/>
<circle cx="57" cy="70.0794" r="1" fill="red"/>
<circle cx="57.1481" cy="15.9834" r="1" fill="red"/>
<circle cx="58" cy="65.8379" r="1" fill="red"/>
<circle cx="58" cy="66.5367" r="1" fill="red"/>
<circle cx="58.8173" cy="87.0861" r="1" fill="red"/>
<circle cx="59" cy="66.154" r="1" fill="red"/>
<circle cx="59.1241" cy="29.002" r="1" fill="red"/>
<circle cx="59.9194" cy="7.96972" r="1" fill="red"/>
<circle cx="60" cy="63.5342" r="1" fill="red"/>
<circle cx="60" cy="69.6634" r="1" fill="red"/>
<circle cx="60" cy="69.8994" r="1" fill="red"/>
<circle cx="61" cy="66.6362" r="1" fill="red"/>
<circle cx="61" cy="67.1848" r="1" fill="red"/>
<circle cx="61" cy="72.3361" r="1" fill="red"/>
<circle cx="61" cy="73.3701" r="1" fill="red"/>
<circle cx="62" cy="64.0378" r="1" fill="red"/>
<circle cx="62" cy="68.2792" r="1" fill="red"/>
<circle cx="63" cy="67.2429" r="1" fill="red"/>
<circle cx="63" cy="68.6492" r="1" fill="red"/>
<circle cx="63" cy="70.7502" r="1" fill="red"/>
<circle cx="63" cy="72.8327" r="1" fill="red"/>
<circle cx="64" cy="64.5572" r="1" fill="red"/>
<circle cx="64" cy="65.7759" r="1" fill="red"/>
<circle cx="64" cy="69.9471" r="1" fill="red"/>
<circle cx="64" cy="73.2544" r="1" fill="red"/>
<circle cx="65" cy="66.5255" r="1" fill="red"/>
<circle cx="65" cy="68.95" r="1" fill="red"/>
<circle cx="65" cy="72.9406" r="1" fill="red"/>
<circle cx="65" cy="75.9065" r="1" fill="red"/>
<circle cx="65.9476" cy="65.6873" r="1" fill="red"/>
<circle cx="66" cy="72.1652" r="1" fill="red"/>
<circle cx="66.3615" cy="82.9413" r="1" fill="red"/>
<circle cx="67" cy="67.2598" r="1" fill="red"/>
<circle cx="67" cy="69.2221" r="1" fill="red"/>
<circle cx="67.8645" cy="99.1945" r="1" fill="red"/>
<circle cx="68" cy="66.7008" r="1" fill="red"/>
<circle cx="68" cy="73.3343" r="1" fill="red"/>
<circle cx="69" cy="69.5659" r="1" fill="red"/>
<circle cx="69.909" cy="71.9328" r="1" fill="red"/>
<circle cx="70" cy="68.0434" r="1" fill="red"/>
<circle cx="70" cy="75.5919" r="1" fill="red"/>
<circle cx="70" cy="75.9943" r="1" fill="red"/>
<circle cx="70.1219" cy="87.9335" r="1" fill="red"/>
<circle cx="71.1283" cy="97.9692" r="1" fill="red"/>
<circle cx="72" cy="70.6888" r="1" fill="red"/>
<circle cx="72.8972" cy="91.2362" r="1" fill="red"/>
<circle cx="73" cy="71.0056" r="1" fill="red"/>
<circle cx="73.5211" cy="19.0221" r="1" fill="red"/>
<circle cx="73.7267" cy="29.8584" r="1" fill="red"/>
<circle cx="74" cy="72.4415" r="1" fill="red"/>
<circle cx="74.2579" cy="8.61809" r="1" fill="red"/>
<circle cx="76" cy="70.6294" r="1" fill="red"/>
<circle cx="76" cy="71.5547" r="1" fill="red"/>
<circle cx="76" cy="72.5345" r="1" fill="red"/>
<circle cx="78" cy="70.5347" r="1" fill="red"/>
<circle cx="78" cy="71.4907" r="1" fill="red"/>
<circle cx="78.3419" cy="71.1932" r="1" fill="red"/>
<circle cx="79" cy="75.4637" r="1" fill="red"/>
<circle cx="79" cy="76.298" r="1" fill="red"/>
<circle cx="80" cy="74.7626" r="1" fill="red"/>
<circle cx="80.0831" cy="5.95102" r="1" fill="red"/>
<circle cx="80.1367" cy="77.923" r="1" fill="red"/>
<circle cx="80.5581" cy="47.5526" r="1" fill="red"/>
<circle cx="80.763" cy="50.9401" r="1" fill="red"/>
<circle cx="80.8633" cy="98.8969" r="1" fill="red"/>
<circle cx="81" cy="75.5722" r="1" fill="red"/>
<circle cx="81" cy="76.1203" r="1" fill="red"/>
<circle cx="81" cy="76.2461" r="1" fill="red"/>
<circle cx="81" cy="77.64" r="1" fill="red"/>
<circle cx="82" cy="73.5475" r="1" fill="red"/>
<circle cx="82" cy="73.5674" r="1" fill="red"/>
<circle cx="82" cy="75.0286" r="1" fill="red"/>
<circle cx="83" cy="72.7004" r="1" fill="red"/>
<circle cx="83" cy="73.6722" r="1" fill="red"/>
<circle cx="83" cy="74.3758" r="1" fill="red"/>
<circle cx="83" cy="75.5139" r="1" fill="red"/>
<circle cx="84" cy="71.7325" r="1" fill="red"/>
<circle cx="84.234" cy="88.1825" r="1" fill="red"/>
<circle cx="85" cy="73.2493" r="1" fill="red"/>
<circle cx="85" cy="74.1034" r="1" fill="red"/>
<circle cx="85" cy="75.6408" r="1" fill="red"/>
<circle cx="85" cy="78.8315" r="1" fill="red"/>
<circle cx="85.9125" cy="25.8963" r="1" fill="red"/>
<circle cx="86.9576" cy="7.36949" r="1" fill="red"/>
<circle cx="87" cy="74.2923" r="1" fill="red"/>
<circle cx="87" cy="76.0884" r="1" fill="red"/>
<circle cx="87" cy="77.5378" r="1" fill="red"/>
<circle cx="88" cy="75.0897" r="1" fill="red"/>
<circle cx="89" cy="69.473" r="1" fill="red"/>
<circle cx="89.0682" cy="97.2275" r="1" fill="red"/>
<circle cx="90" cy="74.445" r="1" fill="red"/>
<circle cx="90" cy="75.0451" r="1" fill="red"/>
<circle cx="90" cy="78.6515" r="1" fill="red"/>
<circle cx="90" cy="80.4431" r="1" fill="red"/>
<circle cx="91" cy="73.848" r="1" fill="red"/>
<circle cx="92" cy="76.7711" r="1" fill="red"/>
<circle cx="92.064" cy="47.7702" r="1" fill="red"/>
<circle cx="93" cy="77.9049" r="1" fill="red"/>
<circle cx="93" cy="82.863" r="1" fill="red"/>
<circle cx="93.8429" cy="95.3404" r="1" fill="red"/>
<circle cx="95" cy="75.4658" r="1" fill="red"/>
<circle cx="95" cy="77.7742" r="1" fill="red"/>
<circle cx="95" cy="83.8065" r="1" fill="red"/>
<circle cx="95.9953" cy="49.1476" r="1" fill="red"/>
<circle cx="96" cy="76.1817" r="1" fill="red"/>
<circle cx="96" cy="77.8127" r="1" fill="red"/>
<circle cx="96.9767" cy="97.8834" r="1" fill="red"/>
<circle cx="97" cy="79.51" r="1" fill="red"/>
<circle cx="97" cy="81.9877" r="1" fill="red"/>
<circle cx="97" cy="82.4416" r="1" fill="red"/>
<circle cx="97.6637" cy="19.8267" r="1" fill="red"/>
<circle cx="98" cy="77.0256" r="1" fill="red"/>
<circle cx="99" cy="76.4058" r="1" fill="red"/>
<circle cx="99" cy="79.3669" r="1" fill="red"/>
<circle cx="99.0571" cy="-0.0189605" r="1" fill="red"/>
<circle cx="99.1726" cy="31.1335" r="1" fill="red"/>
</svg>