<?xml version="1.0" standalone="yes"?>
<!-- SVG graphic -->
<svg xmlns='http://www.w3.org/2000/svg' xmlns:xlink='http://www.w3.org/1999/xlink'
width="100px" height="100px" preserveAspectRatio="xMinYMin meet" viewBox="0 0 100 100" version="1.1">
<circle cx="0.899341" cy="15.9245" r="1" fill="red"/>
<circle cx="0.997461" cy="40.2539" r="1" fill="red"/>
<circle cx="2" cy="50.9513" r="1" fill="green"/>
<circle cx="2.95157" cy="55.5626" r="1" fill="red"/>
<circle cx="3" cy="47.5245" r="1" fill="green"/>
<circle cx="3" cy="48.1333" r="1" fill="green"/>
<circle cx="3" cy="52.0923" r="1" fill="green"/>
<circle cx="3" cy="52.6668" r="1" fill="green"/>
<circle cx="4" cy="50.8077" r="1" fill="green"/>
<circle cx="4.06431" cy="65.6906" r="1" fill="red"/>
<circle cx="4.56818" cy="54.3275" r="1" fill="green"/>
<circle cx="5" cy="48.5722" r="1" fill="green"/>
<circle cx="5" cy="52.2542" r="1" fill="green"/>
<circle cx="5.04964" cy="82.1307" r="1" fill="red"/>
<circle cx="5.95475" cy="39.6015" r="1" fill="red"/>
<circle cx="6" cy="52.6533" r="1" fill="green"/>
<circle cx="7" cy="45.5456" r="1" fill="red"/>
<circle cx="7" cy="51.9777" r="1" fill="green"/>
<circle cx="8" cy="54.0842" r="1" fill="green"/>
<circle cx="8.94288" cy="78.9164" r="1" fill="red"/>
<circle cx="10" cy="48.9409" r="1" fill="red"/>
<circle cx="10" cy="51.4841" r="1" fill="green"/>
<circle cx="10" cy="53.5355" r="1" fill="green"/>
<circle cx="10" cy="54.2663" r="1" fill="green"/>
<circle cx="10" cy="54.5116" r="1" fill="green"/>
<circle cx="10.9691" cy="5.02287" r="1" fill="red"/>
<circle cx="11" cy="54.0597" r="1" fill="green"/>
<circle cx="11" cy="54.183" r="1" fill="green"/>
<circle cx="12" cy="50.7301" r="1" fill="green"/>
<circle cx="12" cy="52.0765" r="1" fill="green"/>
<circle cx="12" cy="53.6759" r="1" fill="green"/>
<circle cx="12" cy="55.1762" r="1" fill="green"/>
<circle cx="12.1602" cy="35.9982" r="1" fill="red"/>
<circle cx="14" cy="52.8772" r="1" fill="green"/>
<circle cx="14" cy="53.1901" r="1" fill="green"/>
<circle cx="14" cy="55.7496" r="1" fill="green"/>
<circle cx="15" cy="50.8425" r="1" fill="red"/>
<circle cx="15" cy="56.571" r="1" fill="green"/>
<circle cx="15" cy="56.9739" r="1" fill="green"/>
<circle cx="16" cy="51.9355" r="1" fill="green"/>
<circle cx="16" cy="54.3654" r="1" fill="green"/>
<circle cx="16" cy="56.9206" r="1" fill="green"/>
<circle cx="16.7418" cy="49.1691" r="1" fill="red"/>
<circle cx="17" cy="50.9957" r="1" fill="red"/>
<circle cx="18" cy="53.3966" r="1" fill="green"/>
<circle cx="18.3769" cy="43.2862" r="1" fill="red"/>
<circle cx="19" cy="54.3104" r="1" fill="green"/>
<circle cx="19" cy="54.5515" r="1" fill="green"/>
<circle cx="19" cy="55.2578" r="1" fill="green"/>
<circle cx="19" cy="56.2209" r="1" fill="green"/>
<circle cx="19" cy="56.6862" r="1" fill="green"/>
<circle cx="19" cy="58.6239" r="1" fill="green"/>
<circle cx="19.9388" cy="86.1738" r="1" fill="red"/>
<circle cx="20" cy="55.7111" r="1" fill="green"/>
<circle cx="21" cy="58.2007" r="1" fill="green"/>
<circle cx="22" cy="58.8067" r="1" fill="green"/>
<circle cx="22.211" cy="91.2238" r="1" fill="red"/>
<circle cx="23" cy="54.8831" r="1" fill="green"/>
<circle cx="23" cy="55.1495" r="1" fill="green"/>
<circle cx="23" cy="57.1563" r="1" fill="green"/>
<circle cx="24" cy="54.322" r="1" fill="green"/>
<circle cx="24" cy="54.8521" r="1" fill="green"/>
<circle cx="24" cy="56.3232" r="1" fill="green"/>
<circle cx="25" cy="52.9516" r="1" fill="red"/>
<circle cx="25" cy="58.1402" r="1" fill="green"/>
<circle cx="25.0975" cy="40.7303" r="1" fill="red"/>
<circle cx="25.2597" cy="94.8393" r="1" fill="red"/>
<circle cx="26" cy="57.351" r="1" fill="green"/>
<circle cx="26" cy="60.4068" r="1" fill="green"/>
<circle cx="26.8589" cy="42.922" r="1" fill="red"/>
<circle cx="27" cy="57.9442" r="1" fill="green"/>
<circle cx="27" cy="60.0234" r="1" fill="green"/>
<circle cx="28" cy="56.2514" r="1" fill="green"/>
<circle cx="28" cy="58.6151" r="1" fill="green"/>
<circle cx="28" cy="60.7605" r="1" fill="green"/>
<circle cx="29" cy="56.495" r="1" fill="green"/>
<circle cx="29" cy="57.4396" r="1" fill="green"/>
<circle cx="29" cy="59.3557" r="1" fill="green"/>
<circle cx="29" cy="59.9249" r="1" fill="green"/>
<circle cx="30.1131" cy="9.02241" r="1" fill="red"/>
<circle cx="31" cy="59.9933" r="1" fill="green"/>
<circle cx="31.1735" cy="73.138" r="1" fill="red"/>
<circle cx="32" cy="59.0785" r="1" fill="green"/>
<circle cx="32" cy="59.8258" r="1" fill="green"/>
<circle cx="32" cy="60.0297" r="1" fill="green"/>
<circle cx="32" cy="61.1676" r="1" fill="green"/>
<circle cx="33" cy="59.0186" r="1" fill="green"/>
<circle cx="33.2486" cy="27.6891" r="1" fill="red"/>
<circle cx="34" cy="61.587" r="1" fill="green"/>
<circle cx="35" cy="58.8257" r="1" fill="green"/>
<circle cx="35" cy="59.0908" r="1" fill="green"/>
<circle cx="35" cy="59.8379" r="1" fill="green"/>
<circle cx="35" cy="60.9883" r="1" fill="green"/>
<circle cx="35" cy="61.9651" r="1" fill="green"/>
<circle cx="36" cy="58.8261" r="1" fill="green"/>
<circle cx="36" cy="59.2217" r="1" fill="green"/>
<circle cx="36" cy="59.5992" r="1" fill="green"/>
<circle cx="36" cy="61.4141" r="1" fill="green"/>
<circle cx="36.2358" cy="92.5736" r="1" fill="red"/>
<circle cx="36.585" cy="69.0402" r="1" fill="red"/>
<circle cx="36.8932" cy="51.752" r="1" fill="red"/>
<circle cx="37" cy="58.9455" r="1" fill="green"/>
<circle cx="37" cy="61.7732" r="1" fill="green"/>
<circle cx="37" cy="61.8626" r="1" fill="green"/>
<circle cx="37" cy="64.0823" r="1" fill="green"/>
<circle cx="37.0699" cy="76.8297" r="1" fill="red"/>
<circle cx="38.3256" cy="69.2184" r="1" fill="red"/>
<circle cx="39" cy="59.1014" r="1" fill="green"/>
<circle cx="39" cy="63.3077" r="1" fill="green"/>
<circle cx="39.895" cy="58.8508" r="1" fill="green"/>
<circle cx="40.8076" cy="85.3216" r="1" fill="red"/>
<circle cx="41" cy="61.151" r="1" fill="green"/>
<circle cx="41" cy="63.0495" r="1" fill="green"/>
<circle cx="41" cy="63.2309" r="1" fill="green"/>
<circle cx="41.1404" cy="56.8286" r="1" fill="red"/>
<circle cx="42" cy="62.4168" r="1" fill="green"/>
<circle cx="42" cy="62.6447" r="1" fill="green"/>
<circle cx="42" cy="64.3389" r="1" fill="green"/>
<circle cx="43" cy="62.5954" r="1" fill="green"/>
<circle cx="43" cy="64.3984" r="1" fill="green"/>
<circle cx="44" cy="62.1526" r="1" fill="green"/>
<circle cx="44" cy="65.2612" r="1" fill="green"/>
<circle cx="44.7945" cy="94.8868" r="1" fill="red"/>
<circle cx="45.8667" cy="89.9276" r="1" fill="red"/>
<circle cx="45.9389" cy="42.9147" r="1" fill="red"/>
<circle cx="46" cy="58.5789" r="1" fill="red"/>
<circle cx="46" cy="64.994" r="1" fill="green"/>
<circle cx="46.9861" cy="60.0124" r="1" fill="red"/>
<circle cx="47" cy="63.4363" r="1" fill="green"/>
<circle cx="47" cy="65.5145" r="1" fill="green"/>
<circle cx="47" cy="65.7863" r="1" fill="green"/>
<circle cx="48" cy="62.4401" r="1" fill="green"/>
<circle cx="49" cy="66.2725" r="1" fill="green"/>
<circle cx="49.2335" cy="18.7732" r="1" fill="red"/>
<circle cx="50" cy="62.6314" r="1" fill="green"/>
<circle cx="50" cy="62.9602" r="1" fill="green"/>
<circle cx="50" cy="63.9838" r="1" fill="green"/>
<circle cx="50" cy="64.0665" r="1" fill="green"/>
<circle cx="50.868" cy="47.9256" r="1" fill="red"/>
<circle cx="51" cy="65.8806" r="1" fill="green"/>
<circle cx="51" cy="66.4281" r="1" fill="green"/>
<circle cx="51" cy="68.2157" r="1" fill="green"/>
<circle cx="51.3644" cy="14.7268" r="1" fill="red"/>
<circle cx="52" cy="63.5768" r="1" fill="green"/>
<circle cx="52" cy="66.0147" r="1" fill="green"/>
<circle cx="52.141" cy="12.6944" r="1" fill="red"/>
<circle cx="53" cy="62.3612" r="1" fill="green"/>
<circle cx="53" cy="65.0202" r="1" fill="green"/>
<circle cx="53.1152" cy="39.0186" r="1" fill="red"/>
<circle cx="53.8947" cy="30.0224" r="1" fill="red"/>
<circle cx="54" cy="62.7795" r="1" fill="green"/>
<circle cx="54" cy="62.7943" r="1" fill="green"/>
<circle cx="54" cy="65.2825" r="1" fill="green"/>
<circle cx="54" cy="66.5032" r="1" fill="green"/>
<circle cx="54.8641" cy="69.7714" r="1" fill="red"/>
<circle cx="55" cy="62.2818" r="1" fill="red"/>
<circle cx="55" cy="64.915" r="1" fill="green"/>
<circle cx="55" cy="65.6685" r="1" fill="green"/>
<circle cx="55.2006" cy="31.9492" r="1" fill="red"/>
<circle cx="56" cy="66.6178" r="1" fill="green"/>
<circle cx="56" cy="67.9755" r="1" fill="green"/>
<circle cx="56" cy="69.5517" r="1" fill="green"/>
<circle cx="57" cy="66.8822" r="1" fill="green"/>
<circle cx="57" cy="68.3927" r="1" fill="green"/>
<circle cx="58" cy="66.5556" r="1" fill="green"/>
<circle cx="58" cy="68.4629" r="1" fill="green"/>
<circle cx="58" cy="71.5915" r="1" fill="red"/>
<circle cx="58.0458" cy="47.9616" r="1" fill="red"/>
<circle cx="59" cy="68.8761" r="1" fill="green"/>
<circle cx="59" cy="69.7896" r="1" fill="green"/>
<circle cx="59.1512" cy="-0.210567" r="1" fill="red"/>
<circle cx="59.7487" cy="29.0305" r="1" fill="red"/>
<circle cx="60" cy="66.7012" r="1" fill="green"/>
<circle cx="60" cy="67.3084" r="1" fill="green"/>
<circle cx="61" cy="65.9994" r="1" fill="green"/>
<circle cx="61" cy="67.8896" r="1" fill="green"/>
<circle cx="61" cy="69.8612" r="1" fill="green"/>
<circle cx="61" cy="73.1379" r="1" fill="red"/>
<circle cx="61.2408" cy="84.0392" r="1" fill="red"/>
<circle cx="62" cy="68.9318" r="1" fill="green"/>
<circle cx="62.2477" cy="60.071" r="1" fill="red"/>
<circle cx="62.7165" cy="42.8515" r="1" fill="red"/>
<circle cx="63" cy="68.9595" r="1" fill="green"/>
<circle cx="63" cy="69.2789" r="1" fill="green"/>
<circle cx="63" cy="71.9652" r="1" fill="green"/>
<circle cx="64" cy="69.5097" r="1" fill="green"/>
<circle cx="64.905" cy="66.8536" r="1" fill="green"/>
<circle cx="65" cy="68.6147" r="1" fill="green"/>
<circle cx="65" cy="70.0432" r="1" fill="green"/>
<circle cx="65" cy="70.0451" r="1" fill="green"/>
<circle cx="65" cy="71.1842" r="1" fill="green"/>
<circle cx="66.1319" cy="48.062" r="1" fill="red"/>
<circle cx="66.2972" cy="36.7848" r="1" fill="red"/>
<circle cx="67" cy="70.9432" r="1" fill="green"/>
<circle cx="67" cy="71.1211" r="1" fill="green"/>
<circle cx="67" cy="72.3337" r="1" fill="green"/>
<circle cx="67.7426" cy="63.8585" r="1" fill="red"/>
<circle cx="68" cy="73.3971" r="1" fill="green"/>
<circle cx="69" cy="68.2023" r="1" fill="green"/>
<circle cx="69" cy="70.7908" r="1" fill="green"/>
<circle cx="69" cy="71.5151" r="1" fill="green"/>
<circle cx="70" cy="72.5726" r="1" fill="green"/>
<circle cx="70.2859" cy="23.0203" r="1" fill="red"/>
<circle cx="71" cy="71.2154" r="1" fill="green"/>
<circle cx="71" cy="71.7544" r="1" fill="green"/>
<circle cx="71" cy="71.771" r="1" fill="green"/>
<circle cx="71" cy="73.0574" r="1" fill="green"/>
<circle cx="71.0581" cy="58.1107" r="1" fill="red"/>
<circle cx="72" cy="70.5376" r="1" fill="green"/>
<circle cx="72.0962" cy="23.0589" r="1" fill="red"/>
<circle cx="72.3456" cy="23.0986" r="1" fill="red"/>
<circle cx="72.9822" cy="32.3992" r="1" fill="red"/>
<circle cx="73" cy="73.2914" r="1" fill="green"/>
<circle cx="73.0227" cy="55.9448" r="1" fill="red"/>
<circle cx="73.2246" cy="4.01334" r="1" fill="red"/>
<circle cx="74" cy="71.0006" r="1" fill="green"/>
<circle cx="74" cy="75.1487" r="1" fill="green"/>
<circle cx="74.687" cy="20.6656" r="1" fill="red"/>
<circle cx="74.9221" cy="30.1196" r="1" fill="red"/>
<circle cx="76" cy="70.1897" r="1" fill="green"/>
<circle cx="77.2571" cy="74.1424" r="1" fill="green"/>
<circle cx="77.3027" cy="54.2843" r="1" fill="red"/>
<circle cx="77.8821" cy="7.9991" r="1" fill="red"/>
<circle cx="78" cy="73.0839" r="1" fill="green"/>
<circle cx="78" cy="73.7039" r="1" fill="green"/>
<circle cx="78" cy="74.7481" r="1" fill="green"/>
<circle cx="80" cy="72.3004" r="1" fill="green"/>
<circle cx="80.188" cy="96.1491" r="1" fill="red"/>
<circle cx="81" cy="75.0751" r="1" fill="green"/>
<circle cx="81.7742" cy="74.2069" r="1" fill="green"/>
<circle cx="82" cy="71.2521" r="1" fill="green"/>
<circle cx="82.8459" cy="32.4354" r="1" fill="red"/>
<circle cx="82.8955" cy="89.2862" r="1" fill="red"/>
<circle cx="84" cy="74.3572" r="1" fill="green"/>
<circle cx="84" cy="74.8622" r="1" fill="green"/>
<circle cx="84.105" cy="67.6619" r="1" fill="red"/>
<circle cx="84.143" cy="57.8399" r="1" fill="red"/>
<circle cx="84.8189" cy="57.0295" r="1" fill="red"/>
<circle cx="85" cy="74.038" r="1" fill="green"/>
<circle cx="85" cy="74.3688" r="1" fill="green"/>
<circle cx="85" cy="74.7495" r="1" fill="green"/>
<circle cx="86" cy="74.6195" r="1" fill="green"/>
<circle cx="86.1069" cy="64.2146" r="1" fill="red"/>
<circle cx="86.2426" cy="44.8955" r="1" fill="red"/>
<circle cx="87" cy="78.8739" r="1" fill="green"/>
<circle cx="87.7411" cy="44.8095" r="1" fill="red"/>
<circle cx="87.7451" cy="93.83" r="1" fill="red"/>
<circle cx="88" cy="72.3696" r="1" fill="red"/>
<circle cx="88" cy="73.768" r="1" fill="green"/>
<circle cx="88.8794" cy="65.9016" r="1" fill="red"/>
<circle cx="88.9803" cy="5.84681" r="1" fill="red"/>
<circle cx="88.986" cy="65.7027" r="1" fill="red"/>
<circle cx="89" cy="73.0477" r="1" fill="green"/>
<circle cx="89" cy="73.3088" r="1" fill="green"/>
<circle cx="90" cy="75.8119" r="1" fill="green"/>
<circle cx="90" cy="76.3274" r="1" fill="green"/>
<circle cx="90.0217" cy="16.1203" r="1" fill="red"/>
<circle cx="90.7076" cy="12.0868" r="1" fill="red"/>
<circle cx="91" cy="76.6536" r="1" fill="green"/>
<circle cx="91" cy="77.127" r="1" fill="green"/>
<circle cx="92" cy="78.2364" r="1" fill="green"/>
<circle cx="92" cy="78.5097" r="1" fill="green"/>
<circle cx="92.172" cy="40.5649" r="1" fill="red"/>
<circle cx="93" cy="80.0125" r="1" fill="green"/>
<circle cx="93.6214" cy="88.8595" r="1" fill="red"/>
<circle cx="94" cy="79.9711" r="1" fill="green"/>
<circle cx="94" cy="80.6716" r="1" fill="green"/>
<circle cx="95" cy="77.4001" r="1" fill="green"/>
<circle cx="95" cy="80.6873" r="1" fill="green"/>
<circle cx="96" cy="77.5886" r="1" fill="green"/>
<circle cx="96" cy="78.0048" r="1" fill="green"/>
<circle cx="96" cy="78.8996" r="1" fill="green"/>
<circle cx="96" cy="79.2704" r="1" fill="green"/>
<circle cx="96.016" cy="10.3021" r="1" fill="red"/>
<circle cx="96.1374" cy="66.0557" r="1" fill="red"/>
<circle cx="96.8416" cy="19.6985" r="1" fill="red"/>
<circle cx="97" cy="79.6709" r="1" fill="green"/>
<circle cx="98" cy="80.3233" r="1" fill="green"/>
<circle cx="98.0278" cy="75.6988" r="1" fill="green"/>
<circle cx="99" cy="79.009" r="1" fill="green"/>
<circle cx="99" cy="79.7647" r="1" fill="green"/>
<circle cx="99" cy="79.961" r="1" fill="green"/>
<polyline points="0,49.9305,100,79.611" stroke="blue" stroke-width="0.5" fill="none"/>
</svg>