<?xml version="1.0" standalone="yes"?>
<!-- SVG graphic -->
<svg xmlns='http://www.w3.org/2000/svg' xmlns:xlink='http://www.w3.org/1999/xlink'
width="100px" height="100px" preserveAspectRatio="xMinYMin meet" viewBox="0 0 100 100" version="1.1">
<circle cx="0" cy="42.8099" r="1" fill="red"/>
<circle cx="0" cy="52.6563" r="1" fill="red"/>
<circle cx="0" cy="54.8059" r="1" fill="red"/>
<circle cx="0.0707795" cy="78.699" r="1" fill="red"/>
<circle cx="0.710236" cy="31.9456" r="1" fill="red"/>
<circle cx="0.742368" cy="56.0999" r="1" fill="red"/>
<circle cx="0.931142" cy="35.3938" r="1" fill="red"/>
<circle cx="1" cy="49.0803" r="1" fill="red"/>
<circle cx="1" cy="51.3187" r="1" fill="red"/>
<circle cx="1" cy="51.7571" r="1" fill="red"/>
<circle cx="1.95845" cy="41.2179" r="1" fill="red"/>
<circle cx="2" cy="49.5254" r="1" fill="red"/>
<circle cx="2" cy="52.1568" r="1" fill="red"/>
<circle cx="2" cy="56.1439" r="1" fill="red"/>
<circle cx="2.09359" cy="20.4827" r="1" fill="red"/>
<circle cx="3" cy="51.9132" r="1" fill="red"/>
<circle cx="4" cy="45.7757" r="1" fill="red"/>
<circle cx="4.20121" cy="6.00305" r="1" fill="red"/>
<circle cx="5" cy="50.5877" r="1" fill="red"/>
<circle cx="5" cy="53.1429" r="1" fill="red"/>
<circle cx="5.16227" cy="93.6698" r="1" fill="red"/>
<circle cx="6" cy="48.2478" r="1" fill="red"/>
<circle cx="6" cy="48.8442" r="1" fill="red"/>
<circle cx="6" cy="51.6009" r="1" fill="red"/>
<circle cx="6" cy="52.6476" r="1" fill="red"/>
<circle cx="6.05155" cy="45.1678" r="1" fill="red"/>
<circle cx="6.93197" cy="30.8194" r="1" fill="red"/>
<circle cx="7" cy="49.1311" r="1" fill="red"/>
<circle cx="7" cy="51.1701" r="1" fill="red"/>
<circle cx="7" cy="53.2234" r="1" fill="red"/>
<circle cx="7" cy="54.3043" r="1" fill="red"/>
<circle cx="7" cy="56.4072" r="1" fill="red"/>
<circle cx="7" cy="57.6381" r="1" fill="red"/>
<circle cx="7.29148" cy="33.7788" r="1" fill="red"/>
<circle cx="7.85816" cy="8.92" r="1" fill="red"/>
<circle cx="8" cy="59.0079" r="1" fill="red"/>
<circle cx="8.99958" cy="53.2236" r="1" fill="red"/>
<circle cx="9" cy="49.8784" r="1" fill="red"/>
<circle cx="10.6445" cy="29.8873" r="1" fill="red"/>
<circle cx="10.8438" cy="2.57337" r="1" fill="red"/>
<circle cx="11" cy="58.1491" r="1" fill="red"/>
<circle cx="11" cy="59.8198" r="1" fill="red"/>
<circle cx="12" cy="55.1374" r="1" fill="red"/>
<circle cx="12.3728" cy="91.8289" r="1" fill="red"/>
<circle cx="13" cy="46.4201" r="1" fill="red"/>
<circle cx="13" cy="52.1163" r="1" fill="red"/>
<circle cx="13.2969" cy="6.35132" r="1" fill="red"/>
<circle cx="13.9302" cy="42.9805" r="1" fill="red"/>
<circle cx="15" cy="50.3969" r="1" fill="red"/>
<circle cx="15" cy="52.4854" r="1" fill="red"/>
<circle cx="15" cy="53.4177" r="1" fill="red"/>
<circle cx="15" cy="55.7307" r="1" fill="red"/>
<circle cx="15" cy="56.7111" r="1" fill="red"/>
<circle cx="15" cy="57.0394" r="1" fill="red"/>
<circle cx="16" cy="54.1448" r="1" fill="red"/>
<circle cx="16" cy="56.1188" r="1" fill="red"/>
<circle cx="16.7131" cy="73.0908" r="1" fill="red"/>
<circle cx="17" cy="50.0333" r="1" fill="red"/>
<circle cx="17" cy="53.7458" r="1" fill="red"/>
<circle cx="18" cy="51.7624" r="1" fill="red"/>
<circle cx="18" cy="65.6243" r="1" fill="red"/>
<circle cx="19" cy="51.5514" r="1" fill="red"/>
<circle cx="19" cy="57.7453" r="1" fill="red"/>
<circle cx="19" cy="57.9058" r="1" fill="red"/>
<circle cx="19" cy="60.762" r="1" fill="red"/>
<circle cx="19.349" cy="90.1752" r="1" fill="red"/>
<circle cx="19.8297" cy="85.8772" r="1" fill="red"/>
<circle cx="20" cy="52.6268" r="1" fill="red"/>
<circle cx="20.1946" cy="76.9183" r="1" fill="red"/>
<circle cx="20.4032" cy="57.1628" r="1" fill="red"/>
<circle cx="20.7667" cy="11.7952" r="1" fill="red"/>
<circle cx="20.809" cy="78.6353" r="1" fill="red"/>
<circle cx="20.868" cy="56.8074" r="1" fill="red"/>
<circle cx="20.8845" cy="64.9752" r="1" fill="red"/>
<circle cx="21" cy="61.7814" r="1" fill="red"/>
<circle cx="21.1966" cy="82.639" r="1" fill="red"/>
<circle cx="21.9306" cy="63.146" r="1" fill="red"/>
<circle cx="22" cy="56.0505" r="1" fill="red"/>
<circle cx="22" cy="62.3796" r="1" fill="red"/>
<circle cx="23" cy="54.3017" r="1" fill="red"/>
<circle cx="23" cy="57.861" r="1" fill="red"/>
<circle cx="23.0433" cy="80.8697" r="1" fill="red"/>
<circle cx="24" cy="56.0371" r="1" fill="red"/>
<circle cx="24" cy="59.9878" r="1" fill="red"/>
<circle cx="24" cy="63.0722" r="1" fill="red"/>
<circle cx="24.9047" cy="74.9884" r="1" fill="red"/>
<circle cx="25" cy="52.0158" r="1" fill="red"/>
<circle cx="25" cy="57.2258" r="1" fill="red"/>
<circle cx="25" cy="61.3022" r="1" fill="red"/>
<circle cx="25.3068" cy="88.117" r="1" fill="red"/>
<circle cx="26" cy="57.0727" r="1" fill="red"/>
<circle cx="26" cy="58.8474" r="1" fill="red"/>
<circle cx="26" cy="61.7501" r="1" fill="red"/>
<circle cx="26.0049" cy="53.6346" r="1" fill="red"/>
<circle cx="27" cy="54.2841" r="1" fill="red"/>
<circle cx="27" cy="55.7603" r="1" fill="red"/>
<circle cx="27" cy="56.1849" r="1" fill="red"/>
<circle cx="27" cy="56.8772" r="1" fill="red"/>
<circle cx="27" cy="59.2947" r="1" fill="red"/>
<circle cx="27" cy="59.9237" r="1" fill="red"/>
<circle cx="28" cy="58.3666" r="1" fill="red"/>
<circle cx="28" cy="62.7676" r="1" fill="red"/>
<circle cx="28" cy="63.0062" r="1" fill="red"/>
<circle cx="28.3635" cy="65.9238" r="1" fill="red"/>
<circle cx="29" cy="53.3221" r="1" fill="red"/>
<circle cx="29" cy="57.6541" r="1" fill="red"/>
<circle cx="29" cy="60.132" r="1" fill="red"/>
<circle cx="29.9363" cy="5.05347" r="1" fill="red"/>
<circle cx="31" cy="51.659" r="1" fill="red"/>
<circle cx="31" cy="56.6581" r="1" fill="red"/>
<circle cx="31.763" cy="6.08846" r="1" fill="red"/>
<circle cx="31.8111" cy="40.0532" r="1" fill="red"/>
<circle cx="34" cy="55.8806" r="1" fill="red"/>
<circle cx="34" cy="56.752" r="1" fill="red"/>
<circle cx="34.9963" cy="64.3277" r="1" fill="red"/>
<circle cx="35" cy="53.4312" r="1" fill="red"/>
<circle cx="36" cy="61.9721" r="1" fill="red"/>
<circle cx="37.0063" cy="68.083" r="1" fill="red"/>
<circle cx="38" cy="59.5522" r="1" fill="red"/>
<circle cx="38" cy="62.6552" r="1" fill="red"/>
<circle cx="38.0584" cy="24.576" r="1" fill="red"/>
<circle cx="39" cy="61.5981" r="1" fill="red"/>
<circle cx="39" cy="71.7537" r="1" fill="red"/>
<circle cx="39.7961" cy="31.6027" r="1" fill="red"/>
<circle cx="40" cy="60.0441" r="1" fill="red"/>
<circle cx="40" cy="64.8444" r="1" fill="red"/>
<circle cx="41" cy="59.3404" r="1" fill="red"/>
<circle cx="41" cy="62.4215" r="1" fill="red"/>
<circle cx="42" cy="60.9797" r="1" fill="red"/>
<circle cx="42" cy="61.1116" r="1" fill="red"/>
<circle cx="42" cy="64.8577" r="1" fill="red"/>
<circle cx="42" cy="67.3115" r="1" fill="red"/>
<circle cx="42.9291" cy="37.1042" r="1" fill="red"/>
<circle cx="43" cy="59.0939" r="1" fill="red"/>
<circle cx="43.9973" cy="18.0622" r="1" fill="red"/>
<circle cx="44" cy="61.1287" r="1" fill="red"/>
<circle cx="44" cy="62.3609" r="1" fill="red"/>
<circle cx="44" cy="68.0844" r="1" fill="red"/>
<circle cx="44" cy="69.1075" r="1" fill="red"/>
<circle cx="44.8924" cy="41.9979" r="1" fill="red"/>
<circle cx="45" cy="67.2419" r="1" fill="red"/>
<circle cx="45.7291" cy="83.1634" r="1" fill="red"/>
<circle cx="45.8453" cy="11.7958" r="1" fill="red"/>
<circle cx="46" cy="59.5774" r="1" fill="red"/>
<circle cx="46" cy="61.5737" r="1" fill="red"/>
<circle cx="46" cy="62.5508" r="1" fill="red"/>
<circle cx="46" cy="68.1915" r="1" fill="red"/>
<circle cx="47" cy="59.9786" r="1" fill="red"/>
<circle cx="47.0193" cy="63.6021" r="1" fill="red"/>
<circle cx="48" cy="62.176" r="1" fill="red"/>
<circle cx="48" cy="68.3481" r="1" fill="red"/>
<circle cx="49" cy="69.3551" r="1" fill="red"/>
<circle cx="50" cy="60.6579" r="1" fill="red"/>
<circle cx="51" cy="63.7071" r="1" fill="red"/>
<circle cx="52" cy="70.4533" r="1" fill="red"/>
<circle cx="52.657" cy="89.0799" r="1" fill="red"/>
<circle cx="53" cy="62.1056" r="1" fill="red"/>
<circle cx="53" cy="66.6807" r="1" fill="red"/>
<circle cx="53.6299" cy="87.9591" r="1" fill="red"/>
<circle cx="53.8551" cy="92.2669" r="1" fill="red"/>
<circle cx="54" cy="66.432" r="1" fill="red"/>
<circle cx="54" cy="67.3853" r="1" fill="red"/>
<circle cx="54" cy="69.3297" r="1" fill="red"/>
<circle cx="55" cy="62.5334" r="1" fill="red"/>
<circle cx="56" cy="63.405" r="1" fill="red"/>
<circle cx="56.1304" cy="29.382" r="1" fill="red"/>
<circle cx="56.1365" cy="64.7731" r="1" fill="red"/>
<circle cx="57" cy="70.2628" r="1" fill="red"/>
<circle cx="58" cy="57.1387" r="1" fill="red"/>
<circle cx="58" cy="62.5994" r="1" fill="red"/>
<circle cx="58" cy="66.3265" r="1" fill="red"/>
<circle cx="58" cy="72.9829" r="1" fill="red"/>
<circle cx="59" cy="71.6306" r="1" fill="red"/>
<circle cx="60" cy="67.3332" r="1" fill="red"/>
<circle cx="60.7921" cy="35.9136" r="1" fill="red"/>
<circle cx="62.1304" cy="3.83634" r="1" fill="red"/>
<circle cx="63" cy="74.5707" r="1" fill="red"/>
<circle cx="63.0668" cy="26.0514" r="1" fill="red"/>
<circle cx="64" cy="70.447" r="1" fill="red"/>
<circle cx="64.1464" cy="83.8561" r="1" fill="red"/>
<circle cx="65" cy="65.8488" r="1" fill="red"/>
<circle cx="65" cy="66.2252" r="1" fill="red"/>
<circle cx="66" cy="61.8444" r="1" fill="red"/>
<circle cx="66" cy="65.6532" r="1" fill="red"/>
<circle cx="66" cy="73.7135" r="1" fill="red"/>
<circle cx="66.1319" cy="88.2432" r="1" fill="red"/>
<circle cx="67" cy="71.2491" r="1" fill="red"/>
<circle cx="68" cy="67.3281" r="1" fill="red"/>
<circle cx="68" cy="68.0255" r="1" fill="red"/>
<circle cx="68" cy="70.5042" r="1" fill="red"/>
<circle cx="68" cy="71.4739" r="1" fill="red"/>
<circle cx="68" cy="74.939" r="1" fill="red"/>
<circle cx="68.1952" cy="10.2761" r="1" fill="red"/>
<circle cx="68.9769" cy="1.20125" r="1" fill="red"/>
<circle cx="69" cy="73.0733" r="1" fill="red"/>
<circle cx="69.2942" cy="71.7311" r="1" fill="red"/>
<circle cx="70" cy="68.6496" r="1" fill="red"/>
<circle cx="70" cy="71.9984" r="1" fill="red"/>
<circle cx="70.0088" cy="46.8648" r="1" fill="red"/>
<circle cx="70.2811" cy="2.86976" r="1" fill="red"/>
<circle cx="70.7718" cy="61.8291" r="1" fill="red"/>
<circle cx="71" cy="66.7604" r="1" fill="red"/>
<circle cx="71" cy="75.0498" r="1" fill="red"/>
<circle cx="71.9489" cy="53.7066" r="1" fill="red"/>
<circle cx="72" cy="69.9368" r="1" fill="red"/>
<circle cx="72.3228" cy="40.1174" r="1" fill="red"/>
<circle cx="73" cy="79.4914" r="1" fill="red"/>
<circle cx="74" cy="67.725" r="1" fill="red"/>
<circle cx="74" cy="70.784" r="1" fill="red"/>
<circle cx="74.1283" cy="74.255" r="1" fill="red"/>
<circle cx="74.8885" cy="86.9055" r="1" fill="red"/>
<circle cx="75" cy="68.4943" r="1" fill="red"/>
<circle cx="76" cy="74.0997" r="1" fill="red"/>
<circle cx="76.978" cy="55.05" r="1" fill="red"/>
<circle cx="77" cy="72.1012" r="1" fill="red"/>
<circle cx="78" cy="72.8379" r="1" fill="red"/>
<circle cx="78" cy="74.9994" r="1" fill="red"/>
<circle cx="79" cy="69.1923" r="1" fill="red"/>
<circle cx="79" cy="70.7649" r="1" fill="red"/>
<circle cx="79" cy="77.4563" r="1" fill="red"/>
<circle cx="79.0207" cy="56.2926" r="1" fill="red"/>
<circle cx="79.2594" cy="35.6841" r="1" fill="red"/>
<circle cx="80" cy="71.2639" r="1" fill="red"/>
<circle cx="80" cy="72.6762" r="1" fill="red"/>
<circle cx="80.0408" cy="71.1105" r="1" fill="red"/>
<circle cx="80.8497" cy="34.9763" r="1" fill="red"/>
<circle cx="81" cy="72.3219" r="1" fill="red"/>
<circle cx="81" cy="73.1596" r="1" fill="red"/>
<circle cx="81" cy="76.8942" r="1" fill="red"/>
<circle cx="81" cy="81.1548" r="1" fill="red"/>
<circle cx="84" cy="76.7228" r="1" fill="red"/>
<circle cx="84" cy="77.8013" r="1" fill="red"/>
<circle cx="84" cy="78.8703" r="1" fill="red"/>
<circle cx="84.9426" cy="6.03261" r="1" fill="red"/>
<circle cx="85" cy="73.7202" r="1" fill="red"/>
<circle cx="85" cy="74.4148" r="1" fill="red"/>
<circle cx="85" cy="74.7303" r="1" fill="red"/>
<circle cx="85" cy="77.2686" r="1" fill="red"/>
<circle cx="85.7186" cy="13.9056" r="1" fill="red"/>
<circle cx="85.984" cy="95.776" r="1" fill="red"/>
<circle cx="86" cy="71.1698" r="1" fill="red"/>
<circle cx="86.8156" cy="20.8341" r="1" fill="red"/>
<circle cx="87" cy="74.8737" r="1" fill="red"/>
<circle cx="87" cy="82.1873" r="1" fill="red"/>
<circle cx="88" cy="75.2649" r="1" fill="red"/>
<circle cx="88" cy="76.7808" r="1" fill="red"/>
<circle cx="88" cy="78.6252" r="1" fill="red"/>
<circle cx="88" cy="79.3488" r="1" fill="red"/>
<circle cx="88.0769" cy="31.0341" r="1" fill="red"/>
<circle cx="88.9226" cy="96.5101" r="1" fill="red"/>
<circle cx="89" cy="72.0059" r="1" fill="red"/>
<circle cx="89" cy="75.8973" r="1" fill="red"/>
<circle cx="89.8561" cy="88.8711" r="1" fill="red"/>
<circle cx="89.9256" cy="45.0408" r="1" fill="red"/>
<circle cx="90" cy="79.4707" r="1" fill="red"/>
<circle cx="90" cy="79.4839" r="1" fill="red"/>
<circle cx="90" cy="81.1351" r="1" fill="red"/>
<circle cx="90.0007" cy="19.6147" r="1" fill="red"/>
<circle cx="91" cy="80.8306" r="1" fill="red"/>
<circle cx="92" cy="84.4904" r="1" fill="red"/>
<circle cx="93" cy="75.342" r="1" fill="red"/>
<circle cx="94" cy="77.1761" r="1" fill="red"/>
<circle cx="94" cy="80.9447" r="1" fill="red"/>
<circle cx="94" cy="82.2987" r="1" fill="red"/>
<circle cx="95" cy="79.2692" r="1" fill="red"/>
<circle cx="95" cy="81.7858" r="1" fill="red"/>
<circle cx="95" cy="82.1503" r="1" fill="red"/>
<circle cx="95" cy="84.907" r="1" fill="red"/>
<circle cx="96" cy="76.1486" r="1" fill="red"/>
<circle cx="96" cy="76.416" r="1" fill="red"/>
<circle cx="96" cy="77.3476" r="1" fill="red"/>
<circle cx="96" cy="80.2614" r="1" fill="red"/>
<circle cx="96" cy="81.4008" r="1" fill="red"/>
<circle cx="96" cy="83.075" r="1" fill="red"/>
<circle cx="96.0051" cy="80.0109" r="1" fill="red"/>
<circle cx="96.6156" cy="89.7612" r="1" fill="red"/>
<circle cx="96.9985" cy="5.08994" r="1" fill="red"/>
<circle cx="97" cy="74.8236" r="1" fill="red"/>
<circle cx="97" cy="78.4543" r="1" fill="red"/>
<circle cx="97" cy="80.0596" r="1" fill="red"/>
<circle cx="98" cy="79.4452" r="1" fill="red"/>
<circle cx="99" cy="83.604" r="1" fill="red"/>
</svg>