<?xml version="1.0" standalone="yes"?>
<!-- SVG graphic -->
<svg xmlns='http://www.w3.org/2000/svg' xmlns:xlink='http://www.w3.org/1999/xlink'
width="100px" height="100px" preserveAspectRatio="xMinYMin meet" viewBox="0 0 100 100" version="1.1">
<circle cx="-0.414386" cy="63.6415" r="1" fill="red"/>
<circle cx="0" cy="47.0373" r="1" fill="red"/>
<circle cx="0.362749" cy="36.72" r="1" fill="red"/>
<circle cx="1" cy="48.59" r="1" fill="red"/>
<circle cx="1.70826" cy="68.0059" r="1" fill="red"/>
<circle cx="2" cy="50.1433" r="1" fill="red"/>
<circle cx="2" cy="50.2119" r="1" fill="red"/>
<circle cx="2" cy="53.9694" r="1" fill="red"/>
<circle cx="2.08946" cy="4.10496" r="1" fill="red"/>
<circle cx="2.69079" cy="38.9355" r="1" fill="red"/>
<circle cx="2.76802" cy="98.4955" r="1" fill="red"/>
<circle cx="2.9235" cy="44.7766" r="1" fill="red"/>
<circle cx="3" cy="44.6668" r="1" fill="red"/>
<circle cx="3" cy="49.9238" r="1" fill="red"/>
<circle cx="3" cy="50.3654" r="1" fill="red"/>
<circle cx="3" cy="50.6823" r="1" fill="red"/>
<circle cx="5" cy="46.4478" r="1" fill="red"/>
<circle cx="5" cy="46.5733" r="1" fill="red"/>
<circle cx="5" cy="50.6126" r="1" fill="red"/>
<circle cx="5" cy="54.6196" r="1" fill="red"/>
<circle cx="5" cy="55.3973" r="1" fill="red"/>
<circle cx="5.936" cy="77.8947" r="1" fill="red"/>
<circle cx="6" cy="56.528" r="1" fill="red"/>
<circle cx="6.02399" cy="48.2589" r="1" fill="red"/>
<circle cx="7" cy="54.8577" r="1" fill="red"/>
<circle cx="8" cy="52.9163" r="1" fill="red"/>
<circle cx="8" cy="57.2201" r="1" fill="red"/>
<circle cx="8.12598" cy="46.5712" r="1" fill="red"/>
<circle cx="8.23273" cy="10.976" r="1" fill="red"/>
<circle cx="8.78504" cy="26.8391" r="1" fill="red"/>
<circle cx="9" cy="50.952" r="1" fill="red"/>
<circle cx="9" cy="51.6097" r="1" fill="red"/>
<circle cx="9" cy="54.0227" r="1" fill="red"/>
<circle cx="9" cy="56.0277" r="1" fill="red"/>
<circle cx="9.97444" cy="86.1916" r="1" fill="red"/>
<circle cx="10" cy="56.3902" r="1" fill="red"/>
<circle cx="10.7375" cy="89.6449" r="1" fill="red"/>
<circle cx="11" cy="50.4394" r="1" fill="red"/>
<circle cx="11" cy="51.4166" r="1" fill="red"/>
<circle cx="11" cy="52.1087" r="1" fill="red"/>
<circle cx="11" cy="53.0679" r="1" fill="red"/>
<circle cx="11" cy="56.1111" r="1" fill="red"/>
<circle cx="11.7848" cy="23.0315" r="1" fill="red"/>
<circle cx="12" cy="52.9251" r="1" fill="red"/>
<circle cx="12" cy="54.108" r="1" fill="red"/>
<circle cx="12.7986" cy="82.0145" r="1" fill="red"/>
<circle cx="13" cy="49.1691" r="1" fill="red"/>
<circle cx="13" cy="53.8239" r="1" fill="red"/>
<circle cx="14" cy="52.4211" r="1" fill="red"/>
<circle cx="14.7984" cy="10.9463" r="1" fill="red"/>
<circle cx="14.9172" cy="36.8779" r="1" fill="red"/>
<circle cx="15" cy="52.7543" r="1" fill="red"/>
<circle cx="15" cy="62.0382" r="1" fill="red"/>
<circle cx="16" cy="54.3039" r="1" fill="red"/>
<circle cx="16" cy="57.3327" r="1" fill="red"/>
<circle cx="16" cy="57.939" r="1" fill="red"/>
<circle cx="17" cy="50.7541" r="1" fill="red"/>
<circle cx="17" cy="55.6731" r="1" fill="red"/>
<circle cx="17.3245" cy="81.8809" r="1" fill="red"/>
<circle cx="18" cy="57.3871" r="1" fill="red"/>
<circle cx="19" cy="58.3944" r="1" fill="red"/>
<circle cx="19.0729" cy="85.1504" r="1" fill="red"/>
<circle cx="20" cy="60.5045" r="1" fill="red"/>
<circle cx="21" cy="53.6344" r="1" fill="red"/>
<circle cx="21" cy="59.2587" r="1" fill="red"/>
<circle cx="22" cy="53.9479" r="1" fill="red"/>
<circle cx="22" cy="58.7478" r="1" fill="red"/>
<circle cx="22" cy="58.9774" r="1" fill="red"/>
<circle cx="23" cy="54.2707" r="1" fill="red"/>
<circle cx="23" cy="57.3039" r="1" fill="red"/>
<circle cx="23" cy="65.217" r="1" fill="red"/>
<circle cx="23.0434" cy="32.2981" r="1" fill="red"/>
<circle cx="24" cy="55.4094" r="1" fill="red"/>
<circle cx="24" cy="56.0519" r="1" fill="red"/>
<circle cx="24" cy="59.4342" r="1" fill="red"/>
<circle cx="25" cy="56.0096" r="1" fill="red"/>
<circle cx="25" cy="56.776" r="1" fill="red"/>
<circle cx="25" cy="58.9941" r="1" fill="red"/>
<circle cx="26" cy="56.0745" r="1" fill="red"/>
<circle cx="26" cy="61.8107" r="1" fill="red"/>
<circle cx="26.203" cy="25.0526" r="1" fill="red"/>
<circle cx="27" cy="53.4854" r="1" fill="red"/>
<circle cx="27" cy="54.8385" r="1" fill="red"/>
<circle cx="27" cy="56.455" r="1" fill="red"/>
<circle cx="27" cy="57.1496" r="1" fill="red"/>
<circle cx="27" cy="59.1764" r="1" fill="red"/>
<circle cx="29" cy="59.1421" r="1" fill="red"/>
<circle cx="29.4912" cy="5.19294" r="1" fill="red"/>
<circle cx="30" cy="56.3566" r="1" fill="red"/>
<circle cx="30.1169" cy="13.0538" r="1" fill="red"/>
<circle cx="31" cy="54.9831" r="1" fill="red"/>
<circle cx="31" cy="56.3721" r="1" fill="red"/>
<circle cx="31" cy="59.0888" r="1" fill="red"/>
<circle cx="31.9937" cy="65.0446" r="1" fill="red"/>
<circle cx="32" cy="58.5498" r="1" fill="red"/>
<circle cx="32" cy="60.2044" r="1" fill="red"/>
<circle cx="32" cy="61.3126" r="1" fill="red"/>
<circle cx="33" cy="58.19" r="1" fill="red"/>
<circle cx="34" cy="59.4015" r="1" fill="red"/>
<circle cx="34" cy="60.3459" r="1" fill="red"/>
<circle cx="34.0952" cy="30.8428" r="1" fill="red"/>
<circle cx="34.1317" cy="96.9254" r="1" fill="red"/>
<circle cx="34.9944" cy="43.0009" r="1" fill="red"/>
<circle cx="35.9012" cy="77.7531" r="1" fill="red"/>
<circle cx="36" cy="60.5469" r="1" fill="red"/>
<circle cx="36" cy="61.3881" r="1" fill="red"/>
<circle cx="37" cy="62.6307" r="1" fill="red"/>
<circle cx="37" cy="66.4599" r="1" fill="red"/>
<circle cx="38" cy="57.5484" r="1" fill="red"/>
<circle cx="38" cy="64.6241" r="1" fill="red"/>
<circle cx="38" cy="65.664" r="1" fill="red"/>
<circle cx="38.9503" cy="46.1661" r="1" fill="red"/>
<circle cx="39" cy="57.7679" r="1" fill="red"/>
<circle cx="39" cy="59.6122" r="1" fill="red"/>
<circle cx="39" cy="61.1461" r="1" fill="red"/>
<circle cx="39" cy="62.6308" r="1" fill="red"/>
<circle cx="40" cy="60.6739" r="1" fill="red"/>
<circle cx="40" cy="65.9688" r="1" fill="red"/>
<circle cx="41" cy="61.6503" r="1" fill="red"/>
<circle cx="41" cy="63.7787" r="1" fill="red"/>
<circle cx="41" cy="63.7935" r="1" fill="red"/>
<circle cx="41" cy="63.99" r="1" fill="red"/>
<circle cx="41" cy="65.6046" r="1" fill="red"/>
<circle cx="41.9028" cy="65.7982" r="1" fill="red"/>
<circle cx="42" cy="57.0468" r="1" fill="red"/>
<circle cx="42" cy="62.6277" r="1" fill="red"/>
<circle cx="42" cy="66.4772" r="1" fill="red"/>
<circle cx="42.5629" cy="9.11389" r="1" fill="red"/>
<circle cx="43" cy="63.7288" r="1" fill="red"/>
<circle cx="44" cy="60.5139" r="1" fill="red"/>
<circle cx="45" cy="66.8808" r="1" fill="red"/>
<circle cx="45.9202" cy="34.9789" r="1" fill="red"/>
<circle cx="46" cy="66.0864" r="1" fill="red"/>
<circle cx="47" cy="61.6408" r="1" fill="red"/>
<circle cx="47.9587" cy="39.9694" r="1" fill="red"/>
<circle cx="47.9682" cy="2.94306" r="1" fill="red"/>
<circle cx="48" cy="66.732" r="1" fill="red"/>
<circle cx="48.1098" cy="13.3423" r="1" fill="red"/>
<circle cx="48.9234" cy="77.0471" r="1" fill="red"/>
<circle cx="49" cy="56.7586" r="1" fill="red"/>
<circle cx="49" cy="60.0511" r="1" fill="red"/>
<circle cx="49" cy="61.6633" r="1" fill="red"/>
<circle cx="49.0149" cy="62.8655" r="1" fill="red"/>
<circle cx="50" cy="63.153" r="1" fill="red"/>
<circle cx="50" cy="64.3187" r="1" fill="red"/>
<circle cx="50" cy="64.8412" r="1" fill="red"/>
<circle cx="50" cy="66.0574" r="1" fill="red"/>
<circle cx="51" cy="65.6024" r="1" fill="red"/>
<circle cx="51" cy="68.2958" r="1" fill="red"/>
<circle cx="52" cy="64.2624" r="1" fill="red"/>
<circle cx="52" cy="66.0189" r="1" fill="red"/>
<circle cx="52" cy="69.7402" r="1" fill="red"/>
<circle cx="52.1209" cy="34.0864" r="1" fill="red"/>
<circle cx="52.6973" cy="49.5893" r="1" fill="red"/>
<circle cx="53" cy="64.7336" r="1" fill="red"/>
<circle cx="53" cy="65.5295" r="1" fill="red"/>
<circle cx="53.2083" cy="44.7676" r="1" fill="red"/>
<circle cx="54" cy="65.2959" r="1" fill="red"/>
<circle cx="56.1207" cy="37.9224" r="1" fill="red"/>
<circle cx="56.1452" cy="44.1232" r="1" fill="red"/>
<circle cx="56.9053" cy="10.9288" r="1" fill="red"/>
<circle cx="56.9362" cy="57.7904" r="1" fill="red"/>
<circle cx="57" cy="68.9167" r="1" fill="red"/>
<circle cx="57" cy="70.8821" r="1" fill="red"/>
<circle cx="58" cy="65.3867" r="1" fill="red"/>
<circle cx="58" cy="69.9973" r="1" fill="red"/>
<circle cx="59" cy="66.9783" r="1" fill="red"/>
<circle cx="59" cy="68.2707" r="1" fill="red"/>
<circle cx="59" cy="69.722" r="1" fill="red"/>
<circle cx="59.5352" cy="57.9026" r="1" fill="red"/>
<circle cx="59.9162" cy="25.5548" r="1" fill="red"/>
<circle cx="60" cy="69.2073" r="1" fill="red"/>
<circle cx="60.9994" cy="21.0224" r="1" fill="red"/>
<circle cx="61" cy="62.7528" r="1" fill="red"/>
<circle cx="61" cy="65.2287" r="1" fill="red"/>
<circle cx="62" cy="66.586" r="1" fill="red"/>
<circle cx="62" cy="70.9939" r="1" fill="red"/>
<circle cx="62.1126" cy="13.2149" r="1" fill="red"/>
<circle cx="63" cy="65.3354" r="1" fill="red"/>
<circle cx="63" cy="72.723" r="1" fill="red"/>
<circle cx="63" cy="72.8476" r="1" fill="red"/>
<circle cx="63" cy="73.2641" r="1" fill="red"/>
<circle cx="63.1148" cy="15.8072" r="1" fill="red"/>
<circle cx="64" cy="71.5898" r="1" fill="red"/>
<circle cx="64.8838" cy="83.8283" r="1" fill="red"/>
<circle cx="65" cy="65.3156" r="1" fill="red"/>
<circle cx="65" cy="69.5213" r="1" fill="red"/>
<circle cx="65.7492" cy="64.0405" r="1" fill="red"/>
<circle cx="65.8547" cy="33.254" r="1" fill="red"/>
<circle cx="66" cy="69.0795" r="1" fill="red"/>
<circle cx="66" cy="72.1332" r="1" fill="red"/>
<circle cx="66" cy="72.947" r="1" fill="red"/>
<circle cx="66" cy="73.8524" r="1" fill="red"/>
<circle cx="66" cy="75.182" r="1" fill="red"/>
<circle cx="66.0485" cy="73.2899" r="1" fill="red"/>
<circle cx="67" cy="61.111" r="1" fill="red"/>
<circle cx="67.1674" cy="26.2627" r="1" fill="red"/>
<circle cx="68" cy="67.4304" r="1" fill="red"/>
<circle cx="68.0279" cy="89.5146" r="1" fill="red"/>
<circle cx="68.3071" cy="62.0645" r="1" fill="red"/>
<circle cx="69" cy="65.0142" r="1" fill="red"/>
<circle cx="69.1678" cy="1.95329" r="1" fill="red"/>
<circle cx="71" cy="69.3972" r="1" fill="red"/>
<circle cx="71.7838" cy="47.0934" r="1" fill="red"/>
<circle cx="72.8033" cy="60.054" r="1" fill="red"/>
<circle cx="73" cy="70.1047" r="1" fill="red"/>
<circle cx="73" cy="74.2448" r="1" fill="red"/>
<circle cx="73.1261" cy="48.9945" r="1" fill="red"/>
<circle cx="74" cy="69.021" r="1" fill="red"/>
<circle cx="74" cy="75.0143" r="1" fill="red"/>
<circle cx="75" cy="73.1288" r="1" fill="red"/>
<circle cx="75.2708" cy="83.9242" r="1" fill="red"/>
<circle cx="76" cy="67.4742" r="1" fill="red"/>
<circle cx="76" cy="70.4707" r="1" fill="red"/>
<circle cx="76" cy="71.8955" r="1" fill="red"/>
<circle cx="76.5965" cy="63.1148" r="1" fill="red"/>
<circle cx="77" cy="71.9312" r="1" fill="red"/>
<circle cx="77.0296" cy="7.89718" r="1" fill="red"/>
<circle cx="77.1556" cy="35.9783" r="1" fill="red"/>
<circle cx="78" cy="76.7171" r="1" fill="red"/>
<circle cx="78.3459" cy="10.6274" r="1" fill="red"/>
<circle cx="79" cy="69.5482" r="1" fill="red"/>
<circle cx="80" cy="70.4744" r="1" fill="red"/>
<circle cx="80.9175" cy="46.1755" r="1" fill="red"/>
<circle cx="81" cy="74.2764" r="1" fill="red"/>
<circle cx="81" cy="74.5328" r="1" fill="red"/>
<circle cx="81" cy="74.9568" r="1" fill="red"/>
<circle cx="81" cy="78.0195" r="1" fill="red"/>
<circle cx="81.9736" cy="44.0379" r="1" fill="red"/>
<circle cx="82" cy="70.0762" r="1" fill="red"/>
<circle cx="82" cy="71.4106" r="1" fill="red"/>
<circle cx="82" cy="71.4692" r="1" fill="red"/>
<circle cx="82.165" cy="87.8372" r="1" fill="red"/>
<circle cx="82.9312" cy="18.9477" r="1" fill="red"/>
<circle cx="82.9517" cy="6.98979" r="1" fill="red"/>
<circle cx="82.9635" cy="33.6881" r="1" fill="red"/>
<circle cx="83" cy="75.3117" r="1" fill="red"/>
<circle cx="83" cy="77.9638" r="1" fill="red"/>
<circle cx="84" cy="76.4329" r="1" fill="red"/>
<circle cx="84.1898" cy="0.154905" r="1" fill="red"/>
<circle cx="86" cy="76.1927" r="1" fill="red"/>
<circle cx="86" cy="79.9719" r="1" fill="red"/>
<circle cx="86" cy="80.1213" r="1" fill="red"/>
<circle cx="86" cy="80.2593" r="1" fill="red"/>
<circle cx="86.8673" cy="64.9601" r="1" fill="red"/>
<circle cx="87" cy="72.3704" r="1" fill="red"/>
<circle cx="88" cy="76.1236" r="1" fill="red"/>
<circle cx="88" cy="77.7226" r="1" fill="red"/>
<circle cx="88" cy="80.1841" r="1" fill="red"/>
<circle cx="89" cy="78.4364" r="1" fill="red"/>
<circle cx="89" cy="79.3769" r="1" fill="red"/>
<circle cx="89.118" cy="95.816" r="1" fill="red"/>
<circle cx="89.8754" cy="76.1661" r="1" fill="red"/>
<circle cx="90.3791" cy="45.7441" r="1" fill="red"/>
<circle cx="90.7654" cy="78.022" r="1" fill="red"/>
<circle cx="91" cy="74.9648" r="1" fill="red"/>
<circle cx="91" cy="75.0607" r="1" fill="red"/>
<circle cx="91" cy="76.7721" r="1" fill="red"/>
<circle cx="91" cy="76.9982" r="1" fill="red"/>
<circle cx="91" cy="78.3713" r="1" fill="red"/>
<circle cx="91" cy="82.924" r="1" fill="red"/>
<circle cx="93" cy="76.499" r="1" fill="red"/>
<circle cx="93" cy="76.6815" r="1" fill="red"/>
<circle cx="93" cy="85.1391" r="1" fill="red"/>
<circle cx="93.0076" cy="16.8754" r="1" fill="red"/>
<circle cx="93.2398" cy="92.183" r="1" fill="red"/>
<circle cx="94" cy="79.0278" r="1" fill="red"/>
<circle cx="94" cy="79.119" r="1" fill="red"/>
<circle cx="94" cy="81.4494" r="1" fill="red"/>
<circle cx="95" cy="74.3864" r="1" fill="red"/>
<circle cx="95" cy="77.0247" r="1" fill="red"/>
<circle cx="95" cy="77.4174" r="1" fill="red"/>
<circle cx="95" cy="79.2891" r="1" fill="red"/>
<circle cx="95.0263" cy="60.8395" r="1" fill="red"/>
<circle cx="96" cy="82.0013" r="1" fill="red"/>
<circle cx="96.924" cy="38.1916" r="1" fill="red"/>
<circle cx="96.9666" cy="9.58082" r="1" fill="red"/>
<circle cx="97" cy="76.7161" r="1" fill="red"/>
<circle cx="98" cy="85.5029" r="1" fill="red"/>
<circle cx="98.9408" cy="69.8857" r="1" fill="red"/>
<circle cx="99" cy="75.463" r="1" fill="red"/>
<circle cx="99" cy="81.3574" r="1" fill="red"/>
</svg>