<?xml version="1.0" standalone="yes"?>
<!-- SVG graphic -->
<svg xmlns='http://www.w3.org/2000/svg' xmlns:xlink='http://www.w3.org/1999/xlink'
width="100px" height="100px" preserveAspectRatio="xMinYMin meet" viewBox="0 0 100 100" version="1.1">
<circle cx="-0.223566" cy="26.142" r="1" fill="red"/>
<circle cx="0" cy="52.3426" r="1" fill="red"/>
<circle cx="0.908923" cy="73.3623" r="1" fill="red"/>
<circle cx="1.09776" cy="13.2652" r="1" fill="red"/>
<circle cx="1.29711" cy="78.8529" r="1" fill="red"/>
<circle cx="2" cy="43.4128" r="1" fill="red"/>
<circle cx="2" cy="49.9823" r="1" fill="red"/>
<circle cx="2" cy="51.8344" r="1" fill="red"/>
<circle cx="2.87992" cy="75.1639" r="1" fill="red"/>
<circle cx="2.93483" cy="96.1346" r="1" fill="red"/>
<circle cx="3" cy="46.6198" r="1" fill="red"/>
<circle cx="3" cy="48.2914" r="1" fill="red"/>
<circle cx="3" cy="54.3671" r="1" fill="red"/>
<circle cx="3" cy="56.1274" r="1" fill="red"/>
<circle cx="3.92076" cy="93.0636" r="1" fill="red"/>
<circle cx="4" cy="47.245" r="1" fill="red"/>
<circle cx="4" cy="51.0125" r="1" fill="red"/>
<circle cx="4" cy="53.5799" r="1" fill="red"/>
<circle cx="4" cy="54.8174" r="1" fill="red"/>
<circle cx="5" cy="48.1152" r="1" fill="red"/>
<circle cx="5" cy="57.1513" r="1" fill="red"/>
<circle cx="5.01307" cy="18.0628" r="1" fill="red"/>
<circle cx="6" cy="53.3789" r="1" fill="red"/>
<circle cx="7" cy="49.7975" r="1" fill="red"/>
<circle cx="7" cy="52.2356" r="1" fill="red"/>
<circle cx="7" cy="54.3289" r="1" fill="red"/>
<circle cx="7.75242" cy="-0.264455" r="1" fill="red"/>
<circle cx="7.77811" cy="88.0065" r="1" fill="red"/>
<circle cx="7.89799" cy="87.0504" r="1" fill="red"/>
<circle cx="8" cy="53.2755" r="1" fill="red"/>
<circle cx="8" cy="55.3135" r="1" fill="red"/>
<circle cx="9.72976" cy="50.9796" r="1" fill="red"/>
<circle cx="10" cy="51.6938" r="1" fill="red"/>
<circle cx="10" cy="53.0423" r="1" fill="red"/>
<circle cx="11" cy="60.6489" r="1" fill="red"/>
<circle cx="13" cy="42.4905" r="1" fill="red"/>
<circle cx="13" cy="49.1029" r="1" fill="red"/>
<circle cx="14" cy="47.6539" r="1" fill="red"/>
<circle cx="14" cy="52.6948" r="1" fill="red"/>
<circle cx="14" cy="53.1535" r="1" fill="red"/>
<circle cx="15.1851" cy="43.7689" r="1" fill="red"/>
<circle cx="16" cy="58.0267" r="1" fill="red"/>
<circle cx="17" cy="51.0838" r="1" fill="red"/>
<circle cx="18" cy="52.5575" r="1" fill="red"/>
<circle cx="18" cy="54.5263" r="1" fill="red"/>
<circle cx="18" cy="58.9651" r="1" fill="red"/>
<circle cx="18" cy="59.2646" r="1" fill="red"/>
<circle cx="18.822" cy="16.8541" r="1" fill="red"/>
<circle cx="19" cy="58.6538" r="1" fill="red"/>
<circle cx="20" cy="53.8186" r="1" fill="red"/>
<circle cx="20" cy="53.9782" r="1" fill="red"/>
<circle cx="20.252" cy="24.9685" r="1" fill="red"/>
<circle cx="21" cy="50.5971" r="1" fill="red"/>
<circle cx="21" cy="56.9744" r="1" fill="red"/>
<circle cx="21" cy="57.6711" r="1" fill="red"/>
<circle cx="22.047" cy="74.1672" r="1" fill="red"/>
<circle cx="22.844" cy="94.9653" r="1" fill="red"/>
<circle cx="22.9775" cy="48.9315" r="1" fill="red"/>
<circle cx="23.2877" cy="74.232" r="1" fill="red"/>
<circle cx="24" cy="52.9149" r="1" fill="red"/>
<circle cx="24" cy="56.9661" r="1" fill="red"/>
<circle cx="24" cy="57.8264" r="1" fill="red"/>
<circle cx="24.0154" cy="92.9628" r="1" fill="red"/>
<circle cx="24.678" cy="10.8469" r="1" fill="red"/>
<circle cx="25" cy="54.3509" r="1" fill="red"/>
<circle cx="25" cy="55.6932" r="1" fill="red"/>
<circle cx="25" cy="62.1079" r="1" fill="red"/>
<circle cx="25" cy="62.8525" r="1" fill="red"/>
<circle cx="25" cy="63.178" r="1" fill="red"/>
<circle cx="25.1755" cy="2.09287" r="1" fill="red"/>
<circle cx="26" cy="58.4134" r="1" fill="red"/>
<circle cx="26" cy="64.1189" r="1" fill="red"/>
<circle cx="26.0372" cy="60.9526" r="1" fill="red"/>
<circle cx="26.1924" cy="62.2101" r="1" fill="red"/>
<circle cx="26.231" cy="35.9749" r="1" fill="red"/>
<circle cx="26.8306" cy="93.86" r="1" fill="red"/>
<circle cx="27" cy="54.4804" r="1" fill="red"/>
<circle cx="27" cy="57.3695" r="1" fill="red"/>
<circle cx="27" cy="62.0426" r="1" fill="red"/>
<circle cx="27" cy="62.6994" r="1" fill="red"/>
<circle cx="27" cy="65.2376" r="1" fill="red"/>
<circle cx="28" cy="59.7491" r="1" fill="red"/>
<circle cx="28.2251" cy="17.883" r="1" fill="red"/>
<circle cx="29" cy="53.7763" r="1" fill="red"/>
<circle cx="29" cy="54.2112" r="1" fill="red"/>
<circle cx="29" cy="57.6516" r="1" fill="red"/>
<circle cx="29.0727" cy="48.9622" r="1" fill="red"/>
<circle cx="30" cy="53.8695" r="1" fill="red"/>
<circle cx="30.855" cy="68.0217" r="1" fill="red"/>
<circle cx="31" cy="53.458" r="1" fill="red"/>
<circle cx="31.8181" cy="83.8253" r="1" fill="red"/>
<circle cx="32" cy="56.0087" r="1" fill="red"/>
<circle cx="32" cy="56.2323" r="1" fill="red"/>
<circle cx="32" cy="56.8741" r="1" fill="red"/>
<circle cx="32" cy="60.8038" r="1" fill="red"/>
<circle cx="32" cy="63.0495" r="1" fill="red"/>
<circle cx="32.1339" cy="45.9551" r="1" fill="red"/>
<circle cx="33" cy="59.7789" r="1" fill="red"/>
<circle cx="33" cy="62.9829" r="1" fill="red"/>
<circle cx="34" cy="52.9459" r="1" fill="red"/>
<circle cx="34" cy="60.5557" r="1" fill="red"/>
<circle cx="34.8661" cy="7.31542" r="1" fill="red"/>
<circle cx="34.9152" cy="47.8049" r="1" fill="red"/>
<circle cx="36" cy="64.3108" r="1" fill="red"/>
<circle cx="36.157" cy="49.078" r="1" fill="red"/>
<circle cx="36.9435" cy="78.0172" r="1" fill="red"/>
<circle cx="37" cy="52.175" r="1" fill="red"/>
<circle cx="37" cy="66.2679" r="1" fill="red"/>
<circle cx="39" cy="66.002" r="1" fill="red"/>
<circle cx="39.9623" cy="8.85806" r="1" fill="red"/>
<circle cx="40" cy="50.0198" r="1" fill="red"/>
<circle cx="40" cy="59.6405" r="1" fill="red"/>
<circle cx="40" cy="61.884" r="1" fill="red"/>
<circle cx="40" cy="65.8671" r="1" fill="red"/>
<circle cx="40" cy="66.3263" r="1" fill="red"/>
<circle cx="40.9286" cy="72.7358" r="1" fill="red"/>
<circle cx="41.9886" cy="76.0139" r="1" fill="red"/>
<circle cx="42" cy="57.9885" r="1" fill="red"/>
<circle cx="42" cy="63.3687" r="1" fill="red"/>
<circle cx="43" cy="64.8908" r="1" fill="red"/>
<circle cx="44" cy="70.2625" r="1" fill="red"/>
<circle cx="44" cy="70.3313" r="1" fill="red"/>
<circle cx="44.2261" cy="22.318" r="1" fill="red"/>
<circle cx="45" cy="66.0706" r="1" fill="red"/>
<circle cx="45" cy="67.288" r="1" fill="red"/>
<circle cx="46.9208" cy="98.1392" r="1" fill="red"/>
<circle cx="47" cy="61.5714" r="1" fill="red"/>
<circle cx="47" cy="61.9864" r="1" fill="red"/>
<circle cx="47" cy="71.0507" r="1" fill="red"/>
<circle cx="48" cy="60.233" r="1" fill="red"/>
<circle cx="48" cy="67.7662" r="1" fill="red"/>
<circle cx="48" cy="70.1204" r="1" fill="red"/>
<circle cx="48.6916" cy="32.1972" r="1" fill="red"/>
<circle cx="49" cy="65.3955" r="1" fill="red"/>
<circle cx="49" cy="67.4124" r="1" fill="red"/>
<circle cx="50" cy="58.6843" r="1" fill="red"/>
<circle cx="50.0361" cy="45.0285" r="1" fill="red"/>
<circle cx="51" cy="57.5644" r="1" fill="red"/>
<circle cx="51" cy="58.0388" r="1" fill="red"/>
<circle cx="51" cy="68.1385" r="1" fill="red"/>
<circle cx="52" cy="67.6046" r="1" fill="red"/>
<circle cx="52" cy="69.9419" r="1" fill="red"/>
<circle cx="53.1444" cy="-0.308647" r="1" fill="red"/>
<circle cx="54" cy="65.2538" r="1" fill="red"/>
<circle cx="54.5321" cy="3.79924" r="1" fill="red"/>
<circle cx="54.8902" cy="68.9522" r="1" fill="red"/>
<circle cx="55" cy="69.8586" r="1" fill="red"/>
<circle cx="55" cy="70.3663" r="1" fill="red"/>
<circle cx="55.8681" cy="27.1787" r="1" fill="red"/>
<circle cx="56" cy="60.5448" r="1" fill="red"/>
<circle cx="56" cy="63.8911" r="1" fill="red"/>
<circle cx="56" cy="67.3695" r="1" fill="red"/>
<circle cx="56" cy="69.9834" r="1" fill="red"/>
<circle cx="57" cy="64.1988" r="1" fill="red"/>
<circle cx="57" cy="64.4959" r="1" fill="red"/>
<circle cx="57" cy="64.8233" r="1" fill="red"/>
<circle cx="57" cy="66.5647" r="1" fill="red"/>
<circle cx="58" cy="65.2442" r="1" fill="red"/>
<circle cx="58" cy="75.1521" r="1" fill="red"/>
<circle cx="59" cy="63.7858" r="1" fill="red"/>
<circle cx="59" cy="67.9187" r="1" fill="red"/>
<circle cx="59" cy="68.573" r="1" fill="red"/>
<circle cx="59" cy="70.1287" r="1" fill="red"/>
<circle cx="59.0428" cy="91.137" r="1" fill="red"/>
<circle cx="59.8279" cy="80.8064" r="1" fill="red"/>
<circle cx="60" cy="69.2892" r="1" fill="red"/>
<circle cx="60" cy="70.4008" r="1" fill="red"/>
<circle cx="61" cy="59.572" r="1" fill="red"/>
<circle cx="61" cy="63.8216" r="1" fill="red"/>
<circle cx="61" cy="65.5425" r="1" fill="red"/>
<circle cx="61" cy="67.955" r="1" fill="red"/>
<circle cx="61" cy="70.4617" r="1" fill="red"/>
<circle cx="61" cy="76.2923" r="1" fill="red"/>
<circle cx="62" cy="64.383" r="1" fill="red"/>
<circle cx="62" cy="64.4772" r="1" fill="red"/>
<circle cx="62" cy="67.267" r="1" fill="red"/>
<circle cx="62" cy="69.9916" r="1" fill="red"/>
<circle cx="62" cy="73.8052" r="1" fill="red"/>
<circle cx="62.0849" cy="25.9086" r="1" fill="red"/>
<circle cx="62.9566" cy="86.9563" r="1" fill="red"/>
<circle cx="63" cy="68.0269" r="1" fill="red"/>
<circle cx="63" cy="69.9768" r="1" fill="red"/>
<circle cx="63.7147" cy="28.8446" r="1" fill="red"/>
<circle cx="64" cy="69.167" r="1" fill="red"/>
<circle cx="64" cy="75.7322" r="1" fill="red"/>
<circle cx="64.6552" cy="87.9311" r="1" fill="red"/>
<circle cx="64.909" cy="0.0891625" r="1" fill="red"/>
<circle cx="65" cy="66.1587" r="1" fill="red"/>
<circle cx="65" cy="70.1778" r="1" fill="red"/>
<circle cx="65" cy="70.9009" r="1" fill="red"/>
<circle cx="65" cy="71.0134" r="1" fill="red"/>
<circle cx="65" cy="73.9708" r="1" fill="red"/>
<circle cx="65.1635" cy="48.8454" r="1" fill="red"/>
<circle cx="66" cy="71.4634" r="1" fill="red"/>
<circle cx="66.0862" cy="10.9757" r="1" fill="red"/>
<circle cx="67" cy="59.6336" r="1" fill="red"/>
<circle cx="67" cy="63.1168" r="1" fill="red"/>
<circle cx="67" cy="69.0113" r="1" fill="red"/>
<circle cx="67.8311" cy="72.7847" r="1" fill="red"/>
<circle cx="68" cy="60.4423" r="1" fill="red"/>
<circle cx="68" cy="65.1978" r="1" fill="red"/>
<circle cx="69" cy="67.9309" r="1" fill="red"/>
<circle cx="70" cy="74.3295" r="1" fill="red"/>
<circle cx="70" cy="74.3726" r="1" fill="red"/>
<circle cx="70.2444" cy="37.0221" r="1" fill="red"/>
<circle cx="70.904" cy="89.5213" r="1" fill="red"/>
<circle cx="70.9226" cy="55.8941" r="1" fill="red"/>
<circle cx="72" cy="66.3792" r="1" fill="red"/>
<circle cx="72" cy="70.6954" r="1" fill="red"/>
<circle cx="72" cy="75.9436" r="1" fill="red"/>
<circle cx="72" cy="76.4489" r="1" fill="red"/>
<circle cx="72" cy="77.1929" r="1" fill="red"/>
<circle cx="72.1639" cy="44.976" r="1" fill="red"/>
<circle cx="72.2121" cy="4.7362" r="1" fill="red"/>
<circle cx="72.8806" cy="26.9701" r="1" fill="red"/>
<circle cx="73" cy="67.3473" r="1" fill="red"/>
<circle cx="73" cy="74.5108" r="1" fill="red"/>
<circle cx="73" cy="81.1901" r="1" fill="red"/>
<circle cx="74.1388" cy="11.9208" r="1" fill="red"/>
<circle cx="75" cy="65.4658" r="1" fill="red"/>
<circle cx="75" cy="70.7443" r="1" fill="red"/>
<circle cx="76" cy="85.1295" r="1" fill="red"/>
<circle cx="76.985" cy="30.2423" r="1" fill="red"/>
<circle cx="77" cy="67.2267" r="1" fill="red"/>
<circle cx="77" cy="70.5321" r="1" fill="red"/>
<circle cx="77" cy="78.1788" r="1" fill="red"/>
<circle cx="77.0198" cy="1.53765" r="1" fill="red"/>
<circle cx="77.2001" cy="30.8574" r="1" fill="red"/>
<circle cx="77.8534" cy="81.8165" r="1" fill="red"/>
<circle cx="78" cy="72.788" r="1" fill="red"/>
<circle cx="78.439" cy="60.8591" r="1" fill="red"/>
<circle cx="78.9457" cy="10.4245" r="1" fill="red"/>
<circle cx="79" cy="82.8539" r="1" fill="red"/>
<circle cx="79.8053" cy="4.30162" r="1" fill="red"/>
<circle cx="79.9158" cy="58.8738" r="1" fill="red"/>
<circle cx="80" cy="70.5326" r="1" fill="red"/>
<circle cx="81" cy="75.7106" r="1" fill="red"/>
<circle cx="81" cy="75.7179" r="1" fill="red"/>
<circle cx="82" cy="72.5216" r="1" fill="red"/>
<circle cx="82.8045" cy="86.1191" r="1" fill="red"/>
<circle cx="82.9517" cy="55.1182" r="1" fill="red"/>
<circle cx="83" cy="83.7935" r="1" fill="red"/>
<circle cx="84" cy="75.4576" r="1" fill="red"/>
<circle cx="85" cy="68.2395" r="1" fill="red"/>
<circle cx="85" cy="79.7496" r="1" fill="red"/>
<circle cx="85.1654" cy="86.0369" r="1" fill="red"/>
<circle cx="85.244" cy="43.9623" r="1" fill="red"/>
<circle cx="87" cy="74.235" r="1" fill="red"/>
<circle cx="87.6518" cy="91.8939" r="1" fill="red"/>
<circle cx="88" cy="76.4779" r="1" fill="red"/>
<circle cx="88" cy="77.0492" r="1" fill="red"/>
<circle cx="88" cy="79.7842" r="1" fill="red"/>
<circle cx="89" cy="81.6828" r="1" fill="red"/>
<circle cx="90" cy="69.7532" r="1" fill="red"/>
<circle cx="90" cy="72.4812" r="1" fill="red"/>
<circle cx="90" cy="80.0494" r="1" fill="red"/>
<circle cx="91" cy="71.2586" r="1" fill="red"/>
<circle cx="91" cy="75.7484" r="1" fill="red"/>
<circle cx="91.3774" cy="21.223" r="1" fill="red"/>
<circle cx="91.9202" cy="78.9642" r="1" fill="red"/>
<circle cx="92" cy="72.7333" r="1" fill="red"/>
<circle cx="93" cy="76.8572" r="1" fill="red"/>
<circle cx="93" cy="81.1166" r="1" fill="red"/>
<circle cx="93" cy="82.0075" r="1" fill="red"/>
<circle cx="94" cy="69.5129" r="1" fill="red"/>
<circle cx="94" cy="79.4144" r="1" fill="red"/>
<circle cx="94" cy="82.6032" r="1" fill="red"/>
<circle cx="94.1708" cy="43.1249" r="1" fill="red"/>
<circle cx="94.719" cy="10.1059" r="1" fill="red"/>
<circle cx="95" cy="71.4724" r="1" fill="red"/>
<circle cx="95" cy="74.6727" r="1" fill="red"/>
<circle cx="95" cy="77.7992" r="1" fill="red"/>
<circle cx="95" cy="78.4965" r="1" fill="red"/>
<circle cx="96" cy="75.1642" r="1" fill="red"/>
<circle cx="96.9632" cy="25.1843" r="1" fill="red"/>
<circle cx="97" cy="80.1511" r="1" fill="red"/>
<circle cx="97" cy="84.8422" r="1" fill="red"/>
<circle cx="97.0892" cy="3.62622" r="1" fill="red"/>
<circle cx="97.3214" cy="88.8538" r="1" fill="red"/>
<circle cx="98" cy="77.7385" r="1" fill="red"/>
<circle cx="98" cy="81.9599" r="1" fill="red"/>
<circle cx="98.6977" cy="30.9193" r="1" fill="red"/>
</svg>