<?xml version="1.0" standalone="yes"?>
<!-- SVG graphic -->
<svg xmlns='http://www.w3.org/2000/svg' xmlns:xlink='http://www.w3.org/1999/xlink'
width="100px" height="100px" preserveAspectRatio="xMinYMin meet" viewBox="0 0 100 100" version="1.1">
<circle cx="0" cy="45.5372" r="1" fill="green"/>
<circle cx="0" cy="48.0877" r="1" fill="green"/>
<circle cx="0" cy="51.4222" r="1" fill="green"/>
<circle cx="0" cy="54.1845" r="1" fill="green"/>
<circle cx="0" cy="54.9352" r="1" fill="green"/>
<circle cx="0.889135" cy="84.0779" r="1" fill="red"/>
<circle cx="2" cy="49.178" r="1" fill="green"/>
<circle cx="2" cy="52.2195" r="1" fill="green"/>
<circle cx="2.87653" cy="2.88674" r="1" fill="red"/>
<circle cx="3" cy="50.5678" r="1" fill="green"/>
<circle cx="3.00154" cy="19.4593" r="1" fill="red"/>
<circle cx="3.24608" cy="53.6942" r="1" fill="green"/>
<circle cx="3.73984" cy="51.0352" r="1" fill="green"/>
<circle cx="4" cy="43.2614" r="1" fill="red"/>
<circle cx="4.04213" cy="50.177" r="1" fill="green"/>
<circle cx="5" cy="50.8612" r="1" fill="green"/>
<circle cx="5" cy="51.888" r="1" fill="green"/>
<circle cx="5" cy="52.0159" r="1" fill="green"/>
<circle cx="5.83884" cy="22.0274" r="1" fill="red"/>
<circle cx="6" cy="51.4294" r="1" fill="green"/>
<circle cx="6" cy="51.501" r="1" fill="green"/>
<circle cx="6.2018" cy="94.1119" r="1" fill="red"/>
<circle cx="6.802" cy="96.0818" r="1" fill="red"/>
<circle cx="7" cy="43.9453" r="1" fill="red"/>
<circle cx="7.12943" cy="98.0866" r="1" fill="red"/>
<circle cx="9" cy="47.8809" r="1" fill="green"/>
<circle cx="10" cy="46.2777" r="1" fill="green"/>
<circle cx="10" cy="57.6905" r="1" fill="green"/>
<circle cx="10.1543" cy="43.9741" r="1" fill="red"/>
<circle cx="10.2982" cy="82.005" r="1" fill="red"/>
<circle cx="11" cy="49.864" r="1" fill="green"/>
<circle cx="11" cy="55.2102" r="1" fill="green"/>
<circle cx="11.5792" cy="36.8371" r="1" fill="red"/>
<circle cx="11.8595" cy="44.1097" r="1" fill="red"/>
<circle cx="12" cy="50.769" r="1" fill="green"/>
<circle cx="13" cy="51.808" r="1" fill="green"/>
<circle cx="13" cy="59.4975" r="1" fill="green"/>
<circle cx="13" cy="63.2423" r="1" fill="red"/>
<circle cx="14" cy="51.2804" r="1" fill="green"/>
<circle cx="14" cy="59.6681" r="1" fill="green"/>
<circle cx="15" cy="49.8575" r="1" fill="green"/>
<circle cx="15" cy="53.6717" r="1" fill="green"/>
<circle cx="15" cy="54.4002" r="1" fill="green"/>
<circle cx="15" cy="63.1816" r="1" fill="red"/>
<circle cx="15.9821" cy="32.0867" r="1" fill="red"/>
<circle cx="15.9824" cy="22.0357" r="1" fill="red"/>
<circle cx="16" cy="53.6644" r="1" fill="green"/>
<circle cx="16" cy="57.2523" r="1" fill="green"/>
<circle cx="17" cy="59.4161" r="1" fill="green"/>
<circle cx="17.0825" cy="88.7656" r="1" fill="red"/>
<circle cx="17.8811" cy="47.3617" r="1" fill="red"/>
<circle cx="18" cy="55.5562" r="1" fill="green"/>
<circle cx="18.0463" cy="44.0486" r="1" fill="red"/>
<circle cx="18.208" cy="16.1829" r="1" fill="red"/>
<circle cx="19" cy="57.6715" r="1" fill="green"/>
<circle cx="19.084" cy="55.1959" r="1" fill="green"/>
<circle cx="20" cy="49.0223" r="1" fill="green"/>
<circle cx="20" cy="54.2076" r="1" fill="green"/>
<circle cx="20" cy="59.0389" r="1" fill="green"/>
<circle cx="20" cy="62.4434" r="1" fill="red"/>
<circle cx="21" cy="64.1863" r="1" fill="red"/>
<circle cx="21.6094" cy="9.0221" r="1" fill="red"/>
<circle cx="22" cy="53.9118" r="1" fill="green"/>
<circle cx="22.9447" cy="53.8038" r="1" fill="green"/>
<circle cx="23" cy="60.4303" r="1" fill="green"/>
<circle cx="24" cy="51.424" r="1" fill="green"/>
<circle cx="24" cy="52.2448" r="1" fill="green"/>
<circle cx="24" cy="60.5967" r="1" fill="green"/>
<circle cx="24" cy="61.1009" r="1" fill="green"/>
<circle cx="24.1854" cy="11.9819" r="1" fill="red"/>
<circle cx="24.8475" cy="75.0633" r="1" fill="red"/>
<circle cx="24.9347" cy="88.7225" r="1" fill="red"/>
<circle cx="25" cy="58.3291" r="1" fill="green"/>
<circle cx="25" cy="59.0022" r="1" fill="green"/>
<circle cx="25" cy="61.7621" r="1" fill="green"/>
<circle cx="26" cy="55.2466" r="1" fill="green"/>
<circle cx="26" cy="57.3992" r="1" fill="green"/>
<circle cx="26" cy="59.0094" r="1" fill="green"/>
<circle cx="26" cy="63.2439" r="1" fill="green"/>
<circle cx="26" cy="66.8632" r="1" fill="red"/>
<circle cx="27" cy="57.3518" r="1" fill="green"/>
<circle cx="27.0023" cy="39.1891" r="1" fill="red"/>
<circle cx="28" cy="56.8044" r="1" fill="green"/>
<circle cx="28" cy="62.1767" r="1" fill="green"/>
<circle cx="28.0222" cy="89.9528" r="1" fill="red"/>
<circle cx="29" cy="54.5912" r="1" fill="green"/>
<circle cx="29" cy="58.4037" r="1" fill="green"/>
<circle cx="29.3016" cy="64.811" r="1" fill="green"/>
<circle cx="30" cy="55.6705" r="1" fill="green"/>
<circle cx="30" cy="60.598" r="1" fill="green"/>
<circle cx="30" cy="62.1167" r="1" fill="green"/>
<circle cx="31" cy="56.5644" r="1" fill="green"/>
<circle cx="32" cy="59.795" r="1" fill="green"/>
<circle cx="32" cy="64.2066" r="1" fill="green"/>
<circle cx="33" cy="56.144" r="1" fill="green"/>
<circle cx="33" cy="57.8629" r="1" fill="green"/>
<circle cx="33.8063" cy="19.19" r="1" fill="red"/>
<circle cx="34.3384" cy="37.3893" r="1" fill="red"/>
<circle cx="35" cy="56.0006" r="1" fill="green"/>
<circle cx="35.0819" cy="27.9972" r="1" fill="red"/>
<circle cx="36" cy="58.198" r="1" fill="green"/>
<circle cx="36.7851" cy="11.4613" r="1" fill="red"/>
<circle cx="38" cy="65.0236" r="1" fill="green"/>
<circle cx="39" cy="59.2576" r="1" fill="green"/>
<circle cx="39" cy="64.536" r="1" fill="green"/>
<circle cx="39" cy="67.2264" r="1" fill="green"/>
<circle cx="39" cy="68.6983" r="1" fill="red"/>
<circle cx="39.2701" cy="55.2255" r="1" fill="green"/>
<circle cx="40" cy="60.1544" r="1" fill="green"/>
<circle cx="40" cy="64.1942" r="1" fill="green"/>
<circle cx="41" cy="54.327" r="1" fill="red"/>
<circle cx="41" cy="59.3743" r="1" fill="green"/>
<circle cx="41" cy="64.9692" r="1" fill="green"/>
<circle cx="41.253" cy="8.12219" r="1" fill="red"/>
<circle cx="42" cy="58.9606" r="1" fill="green"/>
<circle cx="42.6117" cy="19.1977" r="1" fill="red"/>
<circle cx="43" cy="58.5152" r="1" fill="green"/>
<circle cx="43" cy="67.3545" r="1" fill="green"/>
<circle cx="44" cy="53.1106" r="1" fill="red"/>
<circle cx="44" cy="59.0145" r="1" fill="green"/>
<circle cx="44" cy="63.7498" r="1" fill="green"/>
<circle cx="45" cy="62.1943" r="1" fill="green"/>
<circle cx="45" cy="62.4521" r="1" fill="green"/>
<circle cx="45" cy="62.7355" r="1" fill="green"/>
<circle cx="45.6895" cy="30.9862" r="1" fill="red"/>
<circle cx="46" cy="61.0177" r="1" fill="green"/>
<circle cx="46" cy="64.2044" r="1" fill="green"/>
<circle cx="46.0617" cy="46.0673" r="1" fill="red"/>
<circle cx="46.8138" cy="35.8435" r="1" fill="red"/>
<circle cx="47" cy="64.4967" r="1" fill="green"/>
<circle cx="47" cy="66.1593" r="1" fill="green"/>
<circle cx="48" cy="59.6276" r="1" fill="green"/>
<circle cx="48" cy="61.9056" r="1" fill="green"/>
<circle cx="48.8791" cy="26.2731" r="1" fill="red"/>
<circle cx="49.8002" cy="52.9988" r="1" fill="red"/>
<circle cx="50" cy="69.5435" r="1" fill="green"/>
<circle cx="50.056" cy="9.07606" r="1" fill="red"/>
<circle cx="50.6091" cy="34.1118" r="1" fill="red"/>
<circle cx="50.8896" cy="14.283" r="1" fill="red"/>
<circle cx="51" cy="67.0652" r="1" fill="green"/>
<circle cx="51" cy="68.3096" r="1" fill="green"/>
<circle cx="51.529" cy="71.6707" r="1" fill="green"/>
<circle cx="52" cy="72.8826" r="1" fill="red"/>
<circle cx="53" cy="70.1148" r="1" fill="green"/>
<circle cx="53" cy="71.1161" r="1" fill="green"/>
<circle cx="53.1896" cy="46.4621" r="1" fill="red"/>
<circle cx="53.8815" cy="75.0097" r="1" fill="red"/>
<circle cx="54" cy="62.6648" r="1" fill="green"/>
<circle cx="54" cy="68.4343" r="1" fill="green"/>
<circle cx="55" cy="58.3435" r="1" fill="red"/>
<circle cx="55" cy="71.809" r="1" fill="green"/>
<circle cx="55.169" cy="17.0364" r="1" fill="red"/>
<circle cx="55.7707" cy="15.3347" r="1" fill="red"/>
<circle cx="56" cy="61.1182" r="1" fill="green"/>
<circle cx="56" cy="68.9283" r="1" fill="green"/>
<circle cx="56" cy="76.3258" r="1" fill="red"/>
<circle cx="56.1756" cy="14.9582" r="1" fill="red"/>
<circle cx="56.358" cy="48.283" r="1" fill="red"/>
<circle cx="57" cy="58.3005" r="1" fill="red"/>
<circle cx="57" cy="64.2688" r="1" fill="green"/>
<circle cx="57" cy="64.8847" r="1" fill="green"/>
<circle cx="57" cy="68.0765" r="1" fill="green"/>
<circle cx="57.2917" cy="58.7426" r="1" fill="red"/>
<circle cx="57.8525" cy="48.2104" r="1" fill="red"/>
<circle cx="58" cy="62.9017" r="1" fill="green"/>
<circle cx="58" cy="63.8608" r="1" fill="green"/>
<circle cx="58" cy="64.4372" r="1" fill="green"/>
<circle cx="58.9707" cy="52.8879" r="1" fill="red"/>
<circle cx="59" cy="61.3384" r="1" fill="green"/>
<circle cx="59" cy="62.5861" r="1" fill="green"/>
<circle cx="59" cy="67.1632" r="1" fill="green"/>
<circle cx="60" cy="63.1961" r="1" fill="green"/>
<circle cx="60.0126" cy="79.8874" r="1" fill="red"/>
<circle cx="61" cy="63.8159" r="1" fill="green"/>
<circle cx="62" cy="71.1897" r="1" fill="green"/>
<circle cx="62" cy="73.4572" r="1" fill="green"/>
<circle cx="62.7612" cy="60.4595" r="1" fill="red"/>
<circle cx="63" cy="68.0879" r="1" fill="green"/>
<circle cx="63" cy="70.7221" r="1" fill="green"/>
<circle cx="63" cy="70.7331" r="1" fill="green"/>
<circle cx="64" cy="71.502" r="1" fill="green"/>
<circle cx="64" cy="72.9636" r="1" fill="green"/>
<circle cx="64.2002" cy="63.169" r="1" fill="green"/>
<circle cx="65.2864" cy="16.6538" r="1" fill="red"/>
<circle cx="66.9385" cy="34.9642" r="1" fill="red"/>
<circle cx="68" cy="72.9739" r="1" fill="green"/>
<circle cx="68" cy="73.8491" r="1" fill="green"/>
<circle cx="68.0104" cy="17.203" r="1" fill="red"/>
<circle cx="69" cy="71.7938" r="1" fill="green"/>
<circle cx="69" cy="77.2104" r="1" fill="green"/>
<circle cx="69.6171" cy="25.2254" r="1" fill="red"/>
<circle cx="70" cy="67.7436" r="1" fill="green"/>
<circle cx="70" cy="71.6621" r="1" fill="green"/>
<circle cx="70" cy="73.3403" r="1" fill="green"/>
<circle cx="70" cy="74.7679" r="1" fill="green"/>
<circle cx="70.9123" cy="94.8046" r="1" fill="red"/>
<circle cx="71" cy="65.9027" r="1" fill="green"/>
<circle cx="71" cy="72.5154" r="1" fill="green"/>
<circle cx="71" cy="75.7338" r="1" fill="green"/>
<circle cx="71" cy="76.4606" r="1" fill="green"/>
<circle cx="72" cy="63.46" r="1" fill="red"/>
<circle cx="72" cy="72.7336" r="1" fill="green"/>
<circle cx="72.7675" cy="78.0744" r="1" fill="green"/>
<circle cx="73" cy="73.839" r="1" fill="green"/>
<circle cx="74" cy="66.4071" r="1" fill="green"/>
<circle cx="74" cy="66.9396" r="1" fill="green"/>
<circle cx="74" cy="71.2554" r="1" fill="green"/>
<circle cx="74" cy="71.6135" r="1" fill="green"/>
<circle cx="74" cy="73.8108" r="1" fill="green"/>
<circle cx="74" cy="74.0026" r="1" fill="green"/>
<circle cx="75" cy="67.8557" r="1" fill="green"/>
<circle cx="75" cy="73.3438" r="1" fill="green"/>
<circle cx="76.0842" cy="38.1408" r="1" fill="red"/>
<circle cx="77" cy="65.8228" r="1" fill="red"/>
<circle cx="77" cy="75.5676" r="1" fill="green"/>
<circle cx="77" cy="76.2251" r="1" fill="green"/>
<circle cx="77" cy="79.4968" r="1" fill="green"/>
<circle cx="78" cy="79.0764" r="1" fill="green"/>
<circle cx="79" cy="75.0168" r="1" fill="green"/>
<circle cx="79" cy="76.4184" r="1" fill="green"/>
<circle cx="79" cy="76.5179" r="1" fill="green"/>
<circle cx="80" cy="73.2567" r="1" fill="green"/>
<circle cx="80.0822" cy="61.7868" r="1" fill="red"/>
<circle cx="80.8738" cy="84.844" r="1" fill="red"/>
<circle cx="81" cy="68.1041" r="1" fill="red"/>
<circle cx="81" cy="74.5469" r="1" fill="green"/>
<circle cx="81" cy="78.0169" r="1" fill="green"/>
<circle cx="82" cy="65.4772" r="1" fill="red"/>
<circle cx="82" cy="74.5332" r="1" fill="green"/>
<circle cx="83" cy="68.1422" r="1" fill="red"/>
<circle cx="84" cy="80.3325" r="1" fill="green"/>
<circle cx="85.0129" cy="53.6818" r="1" fill="red"/>
<circle cx="85.0427" cy="22.1244" r="1" fill="red"/>
<circle cx="86" cy="68.7841" r="1" fill="red"/>
<circle cx="86" cy="74.334" r="1" fill="green"/>
<circle cx="86.1398" cy="64.7988" r="1" fill="red"/>
<circle cx="86.6944" cy="50.8301" r="1" fill="red"/>
<circle cx="86.8368" cy="22.3357" r="1" fill="red"/>
<circle cx="86.9904" cy="1.30465" r="1" fill="red"/>
<circle cx="87" cy="72.7051" r="1" fill="green"/>
<circle cx="87" cy="75.243" r="1" fill="green"/>
<circle cx="87" cy="75.3478" r="1" fill="green"/>
<circle cx="88" cy="74.3672" r="1" fill="green"/>
<circle cx="89" cy="74.0084" r="1" fill="green"/>
<circle cx="89" cy="75.574" r="1" fill="green"/>
<circle cx="89.0349" cy="97.7797" r="1" fill="red"/>
<circle cx="89.678" cy="3.74297" r="1" fill="red"/>
<circle cx="90" cy="77.6143" r="1" fill="green"/>
<circle cx="90" cy="78.0031" r="1" fill="green"/>
<circle cx="90" cy="79.0095" r="1" fill="green"/>
<circle cx="90.0685" cy="30.7114" r="1" fill="red"/>
<circle cx="90.1327" cy="81.3423" r="1" fill="green"/>
<circle cx="90.6093" cy="79.0286" r="1" fill="green"/>
<circle cx="91" cy="78.1505" r="1" fill="green"/>
<circle cx="91" cy="78.7327" r="1" fill="green"/>
<circle cx="91" cy="80.1461" r="1" fill="green"/>
<circle cx="91" cy="80.6472" r="1" fill="green"/>
<circle cx="91" cy="80.8796" r="1" fill="green"/>
<circle cx="91.0517" cy="39.7585" r="1" fill="red"/>
<circle cx="91.15" cy="93.2862" r="1" fill="red"/>
<circle cx="92" cy="73.3344" r="1" fill="green"/>
<circle cx="92" cy="75.7369" r="1" fill="green"/>
<circle cx="92" cy="77.0374" r="1" fill="green"/>
<circle cx="93" cy="77.0799" r="1" fill="green"/>
<circle cx="93.0407" cy="4.05154" r="1" fill="red"/>
<circle cx="93.1291" cy="13.0486" r="1" fill="red"/>
<circle cx="94" cy="77.968" r="1" fill="green"/>
<circle cx="95" cy="77.6683" r="1" fill="green"/>
<circle cx="95" cy="79.0113" r="1" fill="green"/>
<circle cx="95.9422" cy="34.9723" r="1" fill="red"/>
<circle cx="96" cy="80.7709" r="1" fill="green"/>
<circle cx="96" cy="81.059" r="1" fill="green"/>
<circle cx="97" cy="77.3207" r="1" fill="green"/>
<circle cx="97" cy="81.2351" r="1" fill="green"/>
<circle cx="97" cy="86.3126" r="1" fill="green"/>
<circle cx="97.8322" cy="88.9957" r="1" fill="red"/>
<circle cx="97.8334" cy="77.9642" r="1" fill="green"/>
<circle cx="98" cy="75.2786" r="1" fill="green"/>
<circle cx="98" cy="80.1066" r="1" fill="green"/>
<circle cx="98" cy="81.2304" r="1" fill="green"/>
<circle cx="98" cy="81.4547" r="1" fill="green"/>
<circle cx="99" cy="80.0483" r="1" fill="green"/>
<polyline points="0,48.8767,100,81.0457" stroke="blue" stroke-width="0.5" fill="none"/>
</svg>